<?xml version="1.0" encoding="UTF-8"?>
<svg xmlns="http://www.w3.org/2000/svg" xmlns:xlink="http://www.w3.org/1999/xlink" width="478.370312" height="213.660375" viewBox="0 0 478.370312 213.660375">
<defs>
<g>
<g id="glyph-0-0">
<path d="M 1.421875 0 L 1.421875 -0.515625 L 2.6875 -0.515625 L 2.6875 -6.578125 L 1.21875 -5.625 L 1.21875 -6.265625 L 3 -7.40625 L 3.671875 -7.40625 L 3.671875 -0.515625 L 4.9375 -0.515625 L 4.9375 0 Z M 1.421875 0 "/>
</g>
<g id="glyph-0-1">
<path d="M 5.140625 -1.5625 C 5.003906 -1 4.753906 -0.570312 4.390625 -0.28125 C 4.035156 0 3.570312 0.140625 3 0.140625 C 2.25 0.140625 1.644531 -0.109375 1.1875 -0.609375 C 0.726562 -1.109375 0.5 -1.769531 0.5 -2.59375 C 0.5 -3.425781 0.726562 -4.085938 1.1875 -4.578125 C 1.644531 -5.078125 2.25 -5.328125 3 -5.328125 C 3.332031 -5.328125 3.660156 -5.285156 3.984375 -5.203125 C 4.304688 -5.128906 4.632812 -5.015625 4.96875 -4.859375 L 4.96875 -3.53125 L 4.4375 -3.53125 C 4.375 -3.988281 4.226562 -4.320312 4 -4.53125 C 3.769531 -4.738281 3.441406 -4.84375 3.015625 -4.84375 C 2.523438 -4.84375 2.15625 -4.65625 1.90625 -4.28125 C 1.664062 -3.90625 1.546875 -3.34375 1.546875 -2.59375 C 1.546875 -1.84375 1.664062 -1.28125 1.90625 -0.90625 C 2.15625 -0.53125 2.523438 -0.34375 3.015625 -0.34375 C 3.398438 -0.34375 3.707031 -0.441406 3.9375 -0.640625 C 4.164062 -0.847656 4.320312 -1.15625 4.40625 -1.5625 Z M 5.140625 -1.5625 "/>
</g>
<g id="glyph-0-2">
<path d="M 2.859375 -5.1875 L 2.859375 -4.671875 L 2.046875 -4.671875 L 2.046875 -2.640625 L 4.234375 -4.671875 L 3.484375 -4.671875 L 3.484375 -5.1875 L 5.828125 -5.1875 L 5.828125 -4.671875 L 4.9375 -4.671875 L 3.40625 -3.234375 L 5.375 -0.515625 L 6.125 -0.515625 L 6.125 0 L 3.5625 0 L 3.5625 -0.515625 L 4.3125 -0.515625 L 2.75 -2.640625 L 2.046875 -1.984375 L 2.046875 -0.515625 L 2.859375 -0.515625 L 2.859375 0 L 0.34375 0 L 0.34375 -0.515625 L 1.15625 -0.515625 L 1.15625 -4.671875 L 0.34375 -4.671875 L 0.34375 -5.1875 Z M 2.859375 -5.1875 "/>
</g>
<g id="glyph-0-3">
<path d="M 2.046875 -2.84375 L 2.046875 -2.328125 C 2.046875 -1.710938 2.164062 -1.238281 2.40625 -0.90625 C 2.644531 -0.582031 2.992188 -0.421875 3.453125 -0.421875 C 3.910156 -0.421875 4.253906 -0.601562 4.484375 -0.96875 C 4.722656 -1.332031 4.84375 -1.875 4.84375 -2.59375 C 4.84375 -3.3125 4.722656 -3.851562 4.484375 -4.21875 C 4.253906 -4.582031 3.910156 -4.765625 3.453125 -4.765625 C 2.992188 -4.765625 2.644531 -4.597656 2.40625 -4.265625 C 2.164062 -3.941406 2.046875 -3.46875 2.046875 -2.84375 Z M 1.15625 -4.65625 L 0.28125 -4.65625 L 0.28125 -5.1875 L 2.046875 -5.1875 L 2.046875 -4.375 C 2.222656 -4.695312 2.445312 -4.9375 2.71875 -5.09375 C 2.988281 -5.25 3.320312 -5.328125 3.71875 -5.328125 C 4.363281 -5.328125 4.882812 -5.070312 5.28125 -4.5625 C 5.6875 -4.0625 5.890625 -3.40625 5.890625 -2.59375 C 5.890625 -1.78125 5.6875 -1.117188 5.28125 -0.609375 C 4.882812 -0.109375 4.363281 0.140625 3.71875 0.140625 C 3.320312 0.140625 2.988281 0.0625 2.71875 -0.09375 C 2.445312 -0.25 2.222656 -0.488281 2.046875 -0.8125 L 2.046875 1.5625 L 2.890625 1.5625 L 2.890625 2.078125 L 0.28125 2.078125 L 0.28125 1.5625 L 1.15625 1.5625 Z M 1.15625 -4.65625 "/>
</g>
<g id="glyph-0-4">
<path d="M 0.9375 -0.5 C 0.9375 -0.6875 1 -0.84375 1.125 -0.96875 C 1.25 -1.09375 1.40625 -1.15625 1.59375 -1.15625 C 1.769531 -1.15625 1.921875 -1.09375 2.046875 -0.96875 C 2.171875 -0.84375 2.234375 -0.6875 2.234375 -0.5 C 2.234375 -0.320312 2.171875 -0.171875 2.046875 -0.046875 C 1.921875 0.078125 1.769531 0.140625 1.59375 0.140625 C 1.40625 0.140625 1.25 0.078125 1.125 -0.046875 C 1 -0.171875 0.9375 -0.320312 0.9375 -0.5 Z M 0.9375 -0.5 "/>
</g>
<g id="glyph-0-5">
</g>
<g id="glyph-0-6">
<path d="M 1.4375 -0.734375 C 1.5 -0.867188 1.554688 -1.09375 1.609375 -1.40625 C 1.671875 -1.726562 1.722656 -2.0625 1.765625 -2.40625 C 1.796875 -2.65625 1.8125 -3.101562 1.8125 -3.75 L 1.8125 -4.671875 L 1 -4.671875 L 1 -5.1875 L 5.984375 -5.1875 L 5.984375 -4.671875 L 5.171875 -4.671875 L 5.171875 -0.515625 L 5.984375 -0.515625 L 5.984375 0 L 3.46875 0 L 3.46875 -0.515625 L 4.28125 -0.515625 L 4.28125 -4.59375 L 2.40625 -4.59375 L 2.40625 -3.75 C 2.40625 -3.226562 2.390625 -2.78125 2.359375 -2.40625 C 2.335938 -2.132812 2.296875 -1.828125 2.234375 -1.484375 C 2.171875 -1.148438 2.101562 -0.851562 2.03125 -0.59375 C 1.96875 -0.363281 1.835938 -0.179688 1.640625 -0.046875 C 1.441406 0.078125 1.207031 0.140625 0.9375 0.140625 C 0.882812 0.140625 0.800781 0.132812 0.6875 0.125 C 0.582031 0.113281 0.421875 0.0703125 0.203125 0 L 0.171875 -0.609375 C 0.421875 -0.503906 0.648438 -0.453125 0.859375 -0.453125 C 0.984375 -0.453125 1.097656 -0.46875 1.203125 -0.5 C 1.304688 -0.539062 1.382812 -0.617188 1.4375 -0.734375 Z M 1.4375 -0.734375 "/>
</g>
<g id="glyph-0-7">
<path d="M 3 -0.34375 C 3.476562 -0.34375 3.835938 -0.53125 4.078125 -0.90625 C 4.328125 -1.289062 4.453125 -1.851562 4.453125 -2.59375 C 4.453125 -3.332031 4.328125 -3.890625 4.078125 -4.265625 C 3.835938 -4.648438 3.476562 -4.84375 3 -4.84375 C 2.519531 -4.84375 2.15625 -4.648438 1.90625 -4.265625 C 1.664062 -3.890625 1.546875 -3.332031 1.546875 -2.59375 C 1.546875 -1.851562 1.664062 -1.289062 1.90625 -0.90625 C 2.15625 -0.53125 2.519531 -0.34375 3 -0.34375 Z M 3 0.140625 C 2.25 0.140625 1.644531 -0.109375 1.1875 -0.609375 C 0.726562 -1.109375 0.5 -1.769531 0.5 -2.59375 C 0.5 -3.414062 0.726562 -4.078125 1.1875 -4.578125 C 1.644531 -5.078125 2.25 -5.328125 3 -5.328125 C 3.757812 -5.328125 4.367188 -5.078125 4.828125 -4.578125 C 5.285156 -4.078125 5.515625 -3.414062 5.515625 -2.59375 C 5.515625 -1.769531 5.285156 -1.109375 4.828125 -0.609375 C 4.367188 -0.109375 3.757812 0.140625 3 0.140625 Z M 3 0.140625 "/>
</g>
<g id="glyph-0-8">
<path d="M 1.734375 -7.09375 C 1.734375 -7.175781 1.769531 -7.253906 1.84375 -7.328125 C 1.925781 -7.410156 2.023438 -7.453125 2.140625 -7.453125 C 2.242188 -7.453125 2.332031 -7.410156 2.40625 -7.328125 C 2.488281 -7.253906 2.53125 -7.160156 2.53125 -7.046875 C 2.53125 -6.929688 2.488281 -6.832031 2.40625 -6.75 C 2.570312 -6.644531 2.859375 -6.59375 3.265625 -6.59375 C 3.660156 -6.59375 3.941406 -6.644531 4.109375 -6.75 C 4.023438 -6.832031 3.984375 -6.929688 3.984375 -7.046875 C 3.984375 -7.160156 4.019531 -7.253906 4.09375 -7.328125 C 4.175781 -7.410156 4.273438 -7.453125 4.390625 -7.453125 C 4.492188 -7.453125 4.582031 -7.410156 4.65625 -7.328125 C 4.738281 -7.253906 4.78125 -7.175781 4.78125 -7.09375 C 4.78125 -7 4.738281 -6.816406 4.65625 -6.546875 C 4.570312 -6.285156 4.109375 -6.15625 3.265625 -6.15625 C 2.410156 -6.15625 1.941406 -6.285156 1.859375 -6.546875 C 1.773438 -6.816406 1.734375 -7 1.734375 -7.09375 Z M 0.34375 0 L 0.34375 -0.515625 L 1.15625 -0.515625 L 1.15625 -4.671875 L 0.34375 -4.671875 L 0.34375 -5.1875 L 2.859375 -5.1875 L 2.859375 -4.671875 L 2.046875 -4.671875 L 2.046875 -1.6875 L 4.421875 -4.203125 L 4.421875 -4.671875 L 3.609375 -4.671875 L 3.609375 -5.1875 L 6.125 -5.1875 L 6.125 -4.671875 L 5.3125 -4.671875 L 5.3125 -0.515625 L 6.125 -0.515625 L 6.125 0 L 3.609375 0 L 3.609375 -0.515625 L 4.421875 -0.515625 L 4.421875 -3.40625 L 2.046875 -0.90625 L 2.046875 -0.515625 L 2.859375 -0.515625 L 2.859375 0 Z M 0.34375 0 "/>
</g>
<g id="glyph-0-9">
<path d="M 1.28125 -5.546875 L 0.734375 -5.546875 L 0.734375 -6.84375 C 1.078125 -7.03125 1.425781 -7.171875 1.78125 -7.265625 C 2.132812 -7.359375 2.476562 -7.40625 2.8125 -7.40625 C 3.570312 -7.40625 4.171875 -7.222656 4.609375 -6.859375 C 5.046875 -6.492188 5.265625 -5.992188 5.265625 -5.359375 C 5.265625 -4.648438 4.769531 -3.800781 3.78125 -2.8125 C 3.695312 -2.738281 3.640625 -2.679688 3.609375 -2.640625 L 1.765625 -0.796875 L 4.796875 -0.796875 L 4.796875 -1.703125 L 5.375 -1.703125 L 5.375 0 L 0.671875 0 L 0.671875 -0.53125 L 2.890625 -2.734375 C 3.378906 -3.222656 3.722656 -3.671875 3.921875 -4.078125 C 4.128906 -4.484375 4.234375 -4.910156 4.234375 -5.359375 C 4.234375 -5.847656 4.101562 -6.226562 3.84375 -6.5 C 3.59375 -6.78125 3.242188 -6.921875 2.796875 -6.921875 C 2.335938 -6.921875 1.976562 -6.804688 1.71875 -6.578125 C 1.46875 -6.347656 1.320312 -6.003906 1.28125 -5.546875 Z M 1.28125 -5.546875 "/>
</g>
<g id="glyph-0-10">
<path d="M 5.40625 -2.5 L 1.546875 -2.5 L 1.546875 -2.453125 C 1.546875 -1.753906 1.675781 -1.226562 1.9375 -0.875 C 2.195312 -0.519531 2.585938 -0.34375 3.109375 -0.34375 C 3.503906 -0.34375 3.828125 -0.441406 4.078125 -0.640625 C 4.328125 -0.847656 4.503906 -1.15625 4.609375 -1.5625 L 5.328125 -1.5625 C 5.179688 -1 4.914062 -0.570312 4.53125 -0.28125 C 4.144531 0 3.640625 0.140625 3.015625 0.140625 C 2.253906 0.140625 1.644531 -0.109375 1.1875 -0.609375 C 0.726562 -1.109375 0.5 -1.769531 0.5 -2.59375 C 0.5 -3.414062 0.722656 -4.078125 1.171875 -4.578125 C 1.628906 -5.078125 2.222656 -5.328125 2.953125 -5.328125 C 3.734375 -5.328125 4.332031 -5.082031 4.75 -4.59375 C 5.175781 -4.113281 5.394531 -3.414062 5.40625 -2.5 Z M 4.359375 -3.015625 C 4.335938 -3.617188 4.207031 -4.070312 3.96875 -4.375 C 3.738281 -4.6875 3.398438 -4.84375 2.953125 -4.84375 C 2.535156 -4.84375 2.207031 -4.6875 1.96875 -4.375 C 1.738281 -4.070312 1.597656 -3.617188 1.546875 -3.015625 Z M 2.046875 -7.65625 C 2.203125 -7.65625 2.332031 -7.597656 2.4375 -7.484375 C 2.550781 -7.367188 2.609375 -7.234375 2.609375 -7.078125 C 2.609375 -6.910156 2.554688 -6.773438 2.453125 -6.671875 C 2.347656 -6.566406 2.210938 -6.515625 2.046875 -6.515625 C 1.878906 -6.515625 1.742188 -6.566406 1.640625 -6.671875 C 1.535156 -6.773438 1.484375 -6.910156 1.484375 -7.078125 C 1.484375 -7.234375 1.535156 -7.367188 1.640625 -7.484375 C 1.753906 -7.597656 1.890625 -7.65625 2.046875 -7.65625 Z M 3.953125 -7.65625 C 4.097656 -7.65625 4.226562 -7.597656 4.34375 -7.484375 C 4.457031 -7.367188 4.515625 -7.234375 4.515625 -7.078125 C 4.515625 -6.910156 4.457031 -6.773438 4.34375 -6.671875 C 4.238281 -6.566406 4.109375 -6.515625 3.953125 -6.515625 C 3.785156 -6.515625 3.644531 -6.566406 3.53125 -6.671875 C 3.425781 -6.773438 3.375 -6.910156 3.375 -7.078125 C 3.375 -7.234375 3.429688 -7.367188 3.546875 -7.484375 C 3.660156 -7.597656 3.796875 -7.65625 3.953125 -7.65625 Z M 3.953125 -7.65625 "/>
</g>
<g id="glyph-0-11">
<path d="M 3.234375 -5.1875 C 4.359375 -5.1875 4.921875 -4.757812 4.921875 -3.90625 C 4.921875 -3.59375 4.820312 -3.34375 4.625 -3.15625 C 4.425781 -2.976562 4.140625 -2.867188 3.765625 -2.828125 C 4.722656 -2.710938 5.203125 -2.269531 5.203125 -1.5 C 5.203125 -0.988281 5.023438 -0.609375 4.671875 -0.359375 C 4.328125 -0.117188 3.785156 0 3.046875 0 L 0.359375 0 L 0.359375 -0.515625 L 1.171875 -0.515625 L 1.171875 -4.671875 L 0.359375 -4.671875 L 0.359375 -5.1875 Z M 2.0625 -3.125 L 2.890625 -3.125 C 3.234375 -3.125 3.5 -3.195312 3.6875 -3.34375 C 3.875 -3.488281 3.96875 -3.671875 3.96875 -3.890625 C 3.96875 -4.117188 3.875 -4.304688 3.6875 -4.453125 C 3.5 -4.597656 3.234375 -4.671875 2.890625 -4.671875 L 2.0625 -4.671875 Z M 2.0625 -0.515625 L 3.0625 -0.515625 C 3.4375 -0.515625 3.726562 -0.601562 3.9375 -0.78125 C 4.144531 -0.96875 4.25 -1.207031 4.25 -1.5 C 4.25 -1.800781 4.144531 -2.039062 3.9375 -2.21875 C 3.738281 -2.394531 3.445312 -2.484375 3.0625 -2.484375 L 2.0625 -2.484375 Z M 2.0625 -0.515625 "/>
</g>
<g id="glyph-0-12">
<path d="M 0.96875 -6.96875 C 1.351562 -7.113281 1.71875 -7.222656 2.0625 -7.296875 C 2.414062 -7.367188 2.742188 -7.40625 3.046875 -7.40625 C 3.753906 -7.40625 4.304688 -7.25 4.703125 -6.9375 C 5.109375 -6.632812 5.3125 -6.210938 5.3125 -5.671875 C 5.3125 -5.234375 5.171875 -4.863281 4.890625 -4.5625 C 4.617188 -4.269531 4.226562 -4.070312 3.71875 -3.96875 C 4.320312 -3.882812 4.785156 -3.664062 5.109375 -3.3125 C 5.441406 -2.96875 5.609375 -2.519531 5.609375 -1.96875 C 5.609375 -1.289062 5.378906 -0.769531 4.921875 -0.40625 C 4.460938 -0.0390625 3.804688 0.140625 2.953125 0.140625 C 2.578125 0.140625 2.207031 0.0976562 1.84375 0.015625 C 1.476562 -0.0664062 1.117188 -0.1875 0.765625 -0.34375 L 0.765625 -1.765625 L 1.3125 -1.765625 C 1.34375 -1.296875 1.5 -0.941406 1.78125 -0.703125 C 2.0625 -0.460938 2.457031 -0.34375 2.96875 -0.34375 C 3.46875 -0.34375 3.859375 -0.484375 4.140625 -0.765625 C 4.429688 -1.054688 4.578125 -1.453125 4.578125 -1.953125 C 4.578125 -2.523438 4.429688 -2.957031 4.140625 -3.25 C 3.847656 -3.550781 3.414062 -3.703125 2.84375 -3.703125 L 2.375 -3.703125 L 2.375 -4.1875 L 2.625 -4.1875 C 3.1875 -4.1875 3.609375 -4.304688 3.890625 -4.546875 C 4.179688 -4.785156 4.328125 -5.140625 4.328125 -5.609375 C 4.328125 -6.035156 4.207031 -6.359375 3.96875 -6.578125 C 3.738281 -6.804688 3.40625 -6.921875 2.96875 -6.921875 C 2.53125 -6.921875 2.1875 -6.816406 1.9375 -6.609375 C 1.695312 -6.398438 1.554688 -6.09375 1.515625 -5.6875 L 0.96875 -5.6875 Z M 0.96875 -6.96875 "/>
</g>
<g id="glyph-0-13">
<path d="M 3.171875 -0.34375 C 3.671875 -0.34375 4.039062 -0.613281 4.28125 -1.15625 C 4.53125 -1.707031 4.65625 -2.53125 4.65625 -3.625 C 4.65625 -4.738281 4.53125 -5.566406 4.28125 -6.109375 C 4.039062 -6.648438 3.671875 -6.921875 3.171875 -6.921875 C 2.671875 -6.921875 2.296875 -6.648438 2.046875 -6.109375 C 1.804688 -5.566406 1.6875 -4.738281 1.6875 -3.625 C 1.6875 -2.53125 1.804688 -1.707031 2.046875 -1.15625 C 2.296875 -0.613281 2.671875 -0.34375 3.171875 -0.34375 Z M 3.171875 0.140625 C 2.378906 0.140625 1.757812 -0.1875 1.3125 -0.84375 C 0.875 -1.507812 0.65625 -2.4375 0.65625 -3.625 C 0.65625 -4.820312 0.875 -5.75 1.3125 -6.40625 C 1.757812 -7.070312 2.378906 -7.40625 3.171875 -7.40625 C 3.960938 -7.40625 4.578125 -7.070312 5.015625 -6.40625 C 5.460938 -5.75 5.6875 -4.820312 5.6875 -3.625 C 5.6875 -2.4375 5.460938 -1.507812 5.015625 -0.84375 C 4.578125 -0.1875 3.960938 0.140625 3.171875 0.140625 Z M 3.171875 0.140625 "/>
</g>
<g id="glyph-0-14">
<path d="M 3.484375 -2.46875 L 3.484375 -6.34375 L 1 -2.46875 Z M 5.625 0 L 2.3125 0 L 2.3125 -0.515625 L 3.484375 -0.515625 L 3.484375 -1.9375 L 0.3125 -1.9375 L 0.3125 -2.484375 L 3.5 -7.40625 L 4.453125 -7.40625 L 4.453125 -2.46875 L 5.84375 -2.46875 L 5.84375 -1.9375 L 4.453125 -1.9375 L 4.453125 -0.515625 L 5.625 -0.515625 Z M 5.625 0 "/>
</g>
<g id="glyph-0-15">
<path d="M 3.265625 -0.34375 C 3.722656 -0.34375 4.070312 -0.507812 4.3125 -0.84375 C 4.5625 -1.175781 4.6875 -1.660156 4.6875 -2.296875 C 4.6875 -2.921875 4.5625 -3.398438 4.3125 -3.734375 C 4.070312 -4.078125 3.722656 -4.25 3.265625 -4.25 C 2.796875 -4.25 2.441406 -4.085938 2.203125 -3.765625 C 1.960938 -3.441406 1.84375 -2.972656 1.84375 -2.359375 C 1.84375 -1.710938 1.960938 -1.210938 2.203125 -0.859375 C 2.453125 -0.515625 2.804688 -0.34375 3.265625 -0.34375 Z M 1.671875 -4 C 1.898438 -4.25 2.148438 -4.429688 2.421875 -4.546875 C 2.703125 -4.671875 3.019531 -4.734375 3.375 -4.734375 C 4.09375 -4.734375 4.660156 -4.515625 5.078125 -4.078125 C 5.503906 -3.640625 5.71875 -3.046875 5.71875 -2.296875 C 5.71875 -1.554688 5.488281 -0.960938 5.03125 -0.515625 C 4.582031 -0.078125 3.984375 0.140625 3.234375 0.140625 C 2.410156 0.140625 1.773438 -0.164062 1.328125 -0.78125 C 0.890625 -1.394531 0.671875 -2.269531 0.671875 -3.40625 C 0.671875 -4.675781 0.929688 -5.660156 1.453125 -6.359375 C 1.972656 -7.054688 2.710938 -7.40625 3.671875 -7.40625 C 3.921875 -7.40625 4.1875 -7.378906 4.46875 -7.328125 C 4.757812 -7.285156 5.050781 -7.21875 5.34375 -7.125 L 5.34375 -5.921875 L 4.796875 -5.921875 C 4.753906 -6.242188 4.625 -6.488281 4.40625 -6.65625 C 4.195312 -6.832031 3.914062 -6.921875 3.5625 -6.921875 C 2.9375 -6.921875 2.46875 -6.679688 2.15625 -6.203125 C 1.84375 -5.734375 1.679688 -5 1.671875 -4 Z M 1.671875 -4 "/>
</g>
<g id="glyph-0-16">
<path d="M 4.65625 -1.984375 C 4.65625 -2.503906 4.523438 -2.90625 4.265625 -3.1875 C 4.003906 -3.476562 3.640625 -3.625 3.171875 -3.625 C 2.703125 -3.625 2.335938 -3.476562 2.078125 -3.1875 C 1.828125 -2.90625 1.703125 -2.503906 1.703125 -1.984375 C 1.703125 -1.460938 1.828125 -1.054688 2.078125 -0.765625 C 2.335938 -0.484375 2.703125 -0.34375 3.171875 -0.34375 C 3.640625 -0.34375 4.003906 -0.484375 4.265625 -0.765625 C 4.523438 -1.054688 4.65625 -1.460938 4.65625 -1.984375 Z M 4.453125 -5.53125 C 4.453125 -5.96875 4.335938 -6.304688 4.109375 -6.546875 C 3.890625 -6.796875 3.578125 -6.921875 3.171875 -6.921875 C 2.773438 -6.921875 2.460938 -6.796875 2.234375 -6.546875 C 2.003906 -6.304688 1.890625 -5.96875 1.890625 -5.53125 C 1.890625 -5.082031 2.003906 -4.734375 2.234375 -4.484375 C 2.460938 -4.234375 2.773438 -4.109375 3.171875 -4.109375 C 3.578125 -4.109375 3.890625 -4.234375 4.109375 -4.484375 C 4.335938 -4.734375 4.453125 -5.082031 4.453125 -5.53125 Z M 3.921875 -3.875 C 4.472656 -3.800781 4.898438 -3.597656 5.203125 -3.265625 C 5.515625 -2.929688 5.671875 -2.503906 5.671875 -1.984375 C 5.671875 -1.304688 5.453125 -0.78125 5.015625 -0.40625 C 4.585938 -0.0390625 3.972656 0.140625 3.171875 0.140625 C 2.367188 0.140625 1.75 -0.0390625 1.3125 -0.40625 C 0.882812 -0.78125 0.671875 -1.304688 0.671875 -1.984375 C 0.671875 -2.503906 0.820312 -2.929688 1.125 -3.265625 C 1.4375 -3.597656 1.867188 -3.800781 2.421875 -3.875 C 1.929688 -3.957031 1.554688 -4.140625 1.296875 -4.421875 C 1.035156 -4.710938 0.90625 -5.082031 0.90625 -5.53125 C 0.90625 -6.113281 1.101562 -6.570312 1.5 -6.90625 C 1.90625 -7.238281 2.460938 -7.40625 3.171875 -7.40625 C 3.878906 -7.40625 4.429688 -7.238281 4.828125 -6.90625 C 5.234375 -6.570312 5.4375 -6.113281 5.4375 -5.53125 C 5.4375 -5.082031 5.304688 -4.710938 5.046875 -4.421875 C 4.785156 -4.140625 4.410156 -3.957031 3.921875 -3.875 Z M 3.921875 -3.875 "/>
</g>
<g id="glyph-1-0">
<path d="M -5.1875 -5.140625 L -3.765625 -5.140625 L -3.765625 -4.625 L -4.578125 -4.625 L -4.578125 -3.21875 L -0.515625 -3.21875 L -0.515625 -4.03125 L 0 -4.03125 L 0 -1.515625 L -0.515625 -1.515625 L -0.515625 -2.328125 L -4.578125 -2.328125 L -4.578125 -0.921875 L -3.765625 -0.921875 L -3.765625 -0.40625 L -5.1875 -0.40625 Z M -5.1875 -5.140625 "/>
</g>
<g id="glyph-1-1">
<path d="M -0.34375 -3 C -0.34375 -3.476562 -0.53125 -3.835938 -0.90625 -4.078125 C -1.289062 -4.328125 -1.851562 -4.453125 -2.59375 -4.453125 C -3.332031 -4.453125 -3.890625 -4.328125 -4.265625 -4.078125 C -4.648438 -3.835938 -4.84375 -3.476562 -4.84375 -3 C -4.84375 -2.519531 -4.648438 -2.15625 -4.265625 -1.90625 C -3.890625 -1.664062 -3.332031 -1.546875 -2.59375 -1.546875 C -1.851562 -1.546875 -1.289062 -1.664062 -0.90625 -1.90625 C -0.53125 -2.15625 -0.34375 -2.519531 -0.34375 -3 Z M 0.140625 -3 C 0.140625 -2.25 -0.109375 -1.644531 -0.609375 -1.1875 C -1.109375 -0.726562 -1.769531 -0.5 -2.59375 -0.5 C -3.414062 -0.5 -4.078125 -0.726562 -4.578125 -1.1875 C -5.078125 -1.644531 -5.328125 -2.25 -5.328125 -3 C -5.328125 -3.757812 -5.078125 -4.367188 -4.578125 -4.828125 C -4.078125 -5.285156 -3.414062 -5.515625 -2.59375 -5.515625 C -1.769531 -5.515625 -1.109375 -5.285156 -0.609375 -4.828125 C -0.109375 -4.367188 0.140625 -3.757812 0.140625 -3 Z M 0.140625 -3 "/>
</g>
<g id="glyph-1-2">
<path d="M -5.1875 -6.0625 L -4.671875 -6.0625 L -4.671875 -5.265625 L -0.515625 -5.265625 L -0.515625 -6.0625 L 0 -6.0625 L 0 -3.546875 L -0.515625 -3.546875 L -0.515625 -4.359375 L -2.046875 -4.359375 L -2.046875 -2.34375 C -2.046875 -2.039062 -2.160156 -1.765625 -2.390625 -1.515625 C -2.617188 -1.273438 -2.859375 -1.15625 -3.109375 -1.15625 L -4.671875 -1.15625 L -4.671875 -0.34375 L -5.1875 -0.34375 L -5.1875 -2.828125 L -4.671875 -2.828125 L -4.671875 -2.046875 L -3.59375 -2.046875 C -3.21875 -2.046875 -2.960938 -2.101562 -2.828125 -2.21875 C -2.703125 -2.332031 -2.640625 -2.484375 -2.640625 -2.671875 L -2.640625 -4.359375 L -4.671875 -4.359375 L -4.671875 -3.578125 L -5.1875 -3.578125 Z M -5.1875 -6.0625 "/>
</g>
<g id="glyph-1-3">
<path d="M -4.671875 -5.3125 L -0.515625 -5.3125 L -0.515625 -6.125 L 0 -6.125 L 0 -3.609375 L -0.515625 -3.609375 L -0.515625 -4.421875 L -2.515625 -4.421875 L -2.515625 -2.046875 L -0.515625 -2.046875 L -0.515625 -2.859375 L 0 -2.859375 L 0 -0.34375 L -0.515625 -0.34375 L -0.515625 -1.15625 L -4.671875 -1.15625 L -4.671875 -0.34375 L -5.1875 -0.34375 L -5.1875 -2.859375 L -4.671875 -2.859375 L -4.671875 -2.046875 L -3.125 -2.046875 L -3.125 -4.421875 L -4.671875 -4.421875 L -4.671875 -3.609375 L -5.1875 -3.609375 L -5.1875 -6.125 L -4.671875 -6.125 Z M -4.671875 -5.3125 "/>
</g>
<g id="glyph-1-4">
<path d="M -1.5625 -5.140625 C -1 -5.003906 -0.570312 -4.753906 -0.28125 -4.390625 C 0 -4.035156 0.140625 -3.570312 0.140625 -3 C 0.140625 -2.25 -0.109375 -1.644531 -0.609375 -1.1875 C -1.109375 -0.726562 -1.769531 -0.5 -2.59375 -0.5 C -3.425781 -0.5 -4.085938 -0.726562 -4.578125 -1.1875 C -5.078125 -1.644531 -5.328125 -2.25 -5.328125 -3 C -5.328125 -3.332031 -5.285156 -3.660156 -5.203125 -3.984375 C -5.128906 -4.304688 -5.015625 -4.632812 -4.859375 -4.96875 L -3.53125 -4.96875 L -3.53125 -4.4375 C -3.988281 -4.375 -4.320312 -4.226562 -4.53125 -4 C -4.738281 -3.769531 -4.84375 -3.441406 -4.84375 -3.015625 C -4.84375 -2.523438 -4.65625 -2.15625 -4.28125 -1.90625 C -3.90625 -1.664062 -3.34375 -1.546875 -2.59375 -1.546875 C -1.84375 -1.546875 -1.28125 -1.664062 -0.90625 -1.90625 C -0.53125 -2.15625 -0.34375 -2.523438 -0.34375 -3.015625 C -0.34375 -3.398438 -0.441406 -3.707031 -0.640625 -3.9375 C -0.847656 -4.164062 -1.15625 -4.320312 -1.5625 -4.40625 Z M -1.5625 -5.140625 "/>
</g>
<g id="glyph-1-5">
<path d="M -0.515625 -2.046875 L -0.515625 -3.15625 C -0.515625 -3.476562 -0.601562 -3.734375 -0.78125 -3.921875 C -0.96875 -4.117188 -1.210938 -4.21875 -1.515625 -4.21875 C -1.804688 -4.21875 -2.039062 -4.117188 -2.21875 -3.921875 C -2.40625 -3.734375 -2.5 -3.476562 -2.5 -3.15625 L -2.5 -2.046875 Z M -1.5 -5.015625 C -0.5 -5.015625 0 -4.394531 0 -3.15625 L 0 -0.296875 L -0.515625 -0.296875 L -0.515625 -1.15625 L -4.671875 -1.15625 L -4.671875 -0.296875 L -5.1875 -0.296875 L -5.1875 -2.859375 L -4.671875 -2.859375 L -4.671875 -2.046875 L -3.03125 -2.046875 L -3.03125 -3 C -3.03125 -4.34375 -2.519531 -5.015625 -1.5 -5.015625 Z M -1.5 -5.015625 "/>
</g>
<g id="glyph-1-6">
</g>
<g id="glyph-1-7">
<path d="M -1.625 -3.96875 L -2.71875 -3.96875 L -2.71875 -2.8125 C -2.71875 -2.375 -2.625 -2.046875 -2.4375 -1.828125 C -2.25 -1.609375 -1.957031 -1.5 -1.5625 -1.5 C -1.195312 -1.5 -0.90625 -1.609375 -0.6875 -1.828125 C -0.476562 -2.046875 -0.375 -2.34375 -0.375 -2.71875 C -0.375 -3.09375 -0.488281 -3.394531 -0.71875 -3.625 C -0.957031 -3.851562 -1.257812 -3.96875 -1.625 -3.96875 Z M -3.234375 -4.875 L -0.515625 -4.875 L -0.515625 -5.671875 L 0 -5.671875 L 0 -3.96875 L -0.5625 -3.96875 C -0.320312 -3.769531 -0.144531 -3.539062 -0.03125 -3.28125 C 0.0820312 -3.019531 0.140625 -2.71875 0.140625 -2.375 C 0.140625 -1.800781 -0.0078125 -1.34375 -0.3125 -1 C -0.625 -0.664062 -1.039062 -0.5 -1.5625 -0.5 C -2.09375 -0.5 -2.503906 -0.691406 -2.796875 -1.078125 C -3.097656 -1.460938 -3.25 -2.007812 -3.25 -2.71875 L -3.25 -3.96875 L -3.609375 -3.96875 C -3.992188 -3.96875 -4.296875 -3.847656 -4.515625 -3.609375 C -4.734375 -3.367188 -4.84375 -3.035156 -4.84375 -2.609375 C -4.84375 -2.253906 -4.757812 -1.96875 -4.59375 -1.75 C -4.4375 -1.539062 -4.195312 -1.410156 -3.875 -1.359375 L -3.875 -0.890625 L -4.921875 -0.890625 C -5.054688 -1.203125 -5.15625 -1.503906 -5.21875 -1.796875 C -5.289062 -2.097656 -5.328125 -2.390625 -5.328125 -2.671875 C -5.328125 -3.390625 -5.144531 -3.9375 -4.78125 -4.3125 C -4.425781 -4.6875 -3.910156 -4.875 -3.234375 -4.875 Z M -3.234375 -4.875 "/>
</g>
<g id="glyph-1-8">
<path d="M -4.65625 -1.078125 L -4.65625 -0.28125 L -5.1875 -0.28125 L -5.1875 -1.078125 L -6.796875 -1.078125 L -6.796875 -1.984375 L -5.1875 -1.984375 L -5.1875 -3.671875 L -4.65625 -3.671875 L -4.65625 -1.984375 L -1.375 -1.984375 C -0.9375 -1.984375 -0.65625 -2.023438 -0.53125 -2.109375 C -0.40625 -2.191406 -0.34375 -2.347656 -0.34375 -2.578125 C -0.34375 -2.804688 -0.410156 -2.972656 -0.546875 -3.078125 C -0.679688 -3.191406 -0.90625 -3.25 -1.21875 -3.25 L -1.21875 -3.9375 C -0.75 -3.90625 -0.40625 -3.773438 -0.1875 -3.546875 C 0.03125 -3.316406 0.140625 -2.96875 0.140625 -2.5 C 0.140625 -1.976562 0.0234375 -1.609375 -0.203125 -1.390625 C -0.429688 -1.179688 -0.820312 -1.078125 -1.375 -1.078125 Z M -4.65625 -1.078125 "/>
</g>
<g id="glyph-1-9">
<path d="M -2.5 -5.40625 L -2.5 -1.546875 L -2.453125 -1.546875 C -1.753906 -1.546875 -1.226562 -1.675781 -0.875 -1.9375 C -0.519531 -2.195312 -0.34375 -2.585938 -0.34375 -3.109375 C -0.34375 -3.503906 -0.441406 -3.828125 -0.640625 -4.078125 C -0.847656 -4.328125 -1.15625 -4.503906 -1.5625 -4.609375 L -1.5625 -5.328125 C -1 -5.179688 -0.570312 -4.914062 -0.28125 -4.53125 C 0 -4.144531 0.140625 -3.640625 0.140625 -3.015625 C 0.140625 -2.253906 -0.109375 -1.644531 -0.609375 -1.1875 C -1.109375 -0.726562 -1.769531 -0.5 -2.59375 -0.5 C -3.414062 -0.5 -4.078125 -0.722656 -4.578125 -1.171875 C -5.078125 -1.628906 -5.328125 -2.222656 -5.328125 -2.953125 C -5.328125 -3.734375 -5.082031 -4.332031 -4.59375 -4.75 C -4.113281 -5.175781 -3.414062 -5.394531 -2.5 -5.40625 Z M -3.015625 -4.359375 C -3.617188 -4.335938 -4.070312 -4.207031 -4.375 -3.96875 C -4.6875 -3.738281 -4.84375 -3.398438 -4.84375 -2.953125 C -4.84375 -2.535156 -4.6875 -2.207031 -4.375 -1.96875 C -4.070312 -1.738281 -3.617188 -1.597656 -3.015625 -1.546875 Z M -3.015625 -4.359375 "/>
</g>
<g id="glyph-1-10">
<path d="M -0.28125 -0.5625 L -1.5 -0.5625 L -1.5 -1.078125 C -1.113281 -1.085938 -0.820312 -1.207031 -0.625 -1.4375 C -0.4375 -1.664062 -0.34375 -2.003906 -0.34375 -2.453125 C -0.34375 -2.859375 -0.414062 -3.164062 -0.5625 -3.375 C -0.71875 -3.59375 -0.941406 -3.703125 -1.234375 -3.703125 C -1.453125 -3.703125 -1.628906 -3.625 -1.765625 -3.46875 C -1.910156 -3.3125 -2.066406 -2.984375 -2.234375 -2.484375 L -2.453125 -1.84375 C -2.585938 -1.394531 -2.765625 -1.070312 -2.984375 -0.875 C -3.203125 -0.675781 -3.472656 -0.578125 -3.796875 -0.578125 C -4.273438 -0.578125 -4.648438 -0.75 -4.921875 -1.09375 C -5.191406 -1.4375 -5.328125 -1.914062 -5.328125 -2.53125 C -5.328125 -2.800781 -5.289062 -3.085938 -5.21875 -3.390625 C -5.144531 -3.691406 -5.039062 -4.003906 -4.90625 -4.328125 L -3.765625 -4.328125 L -3.765625 -3.8125 C -4.109375 -3.800781 -4.375 -3.6875 -4.5625 -3.46875 C -4.75 -3.25 -4.84375 -2.945312 -4.84375 -2.5625 C -4.84375 -2.1875 -4.773438 -1.898438 -4.640625 -1.703125 C -4.503906 -1.515625 -4.304688 -1.421875 -4.046875 -1.421875 C -3.828125 -1.421875 -3.648438 -1.492188 -3.515625 -1.640625 C -3.378906 -1.785156 -3.242188 -2.078125 -3.109375 -2.515625 L -2.890625 -3.234375 C -2.742188 -3.722656 -2.554688 -4.070312 -2.328125 -4.28125 C -2.097656 -4.5 -1.800781 -4.609375 -1.4375 -4.609375 C -0.945312 -4.609375 -0.5625 -4.421875 -0.28125 -4.046875 C 0 -3.671875 0.140625 -3.15625 0.140625 -2.5 C 0.140625 -2.164062 0.101562 -1.835938 0.03125 -1.515625 C -0.0390625 -1.191406 -0.144531 -0.875 -0.28125 -0.5625 Z M -0.28125 -0.5625 "/>
</g>
<g id="glyph-1-11">
<path d="M 0.96875 -0.359375 C 0.75 -0.660156 0.484375 -0.882812 0.171875 -1.03125 C -0.128906 -1.175781 -0.492188 -1.25 -0.921875 -1.25 L -1.109375 -1.25 L -1.109375 -2.203125 C -0.546875 -2.179688 -0.0664062 -2.050781 0.328125 -1.8125 C 0.722656 -1.582031 1.066406 -1.226562 1.359375 -0.75 Z M 0.96875 -0.359375 "/>
</g>
<g id="glyph-1-12">
<path d="M -7.28125 -0.78125 L 0.921875 -3.359375 L 0.921875 -2.578125 L -7.28125 0 Z M -7.28125 -0.78125 "/>
</g>
<g id="glyph-1-13">
<path d="M -6.953125 -2.234375 C -6.953125 -1.953125 -6.816406 -1.726562 -6.546875 -1.5625 C -6.273438 -1.40625 -5.898438 -1.328125 -5.421875 -1.328125 C -4.941406 -1.328125 -4.566406 -1.40625 -4.296875 -1.5625 C -4.023438 -1.726562 -3.890625 -1.953125 -3.890625 -2.234375 C -3.890625 -2.515625 -4.023438 -2.734375 -4.296875 -2.890625 C -4.566406 -3.054688 -4.941406 -3.140625 -5.421875 -3.140625 C -5.898438 -3.140625 -6.273438 -3.054688 -6.546875 -2.890625 C -6.816406 -2.734375 -6.953125 -2.515625 -6.953125 -2.234375 Z M -3.390625 -7.265625 C -3.390625 -6.972656 -3.25 -6.75 -2.96875 -6.59375 C -2.695312 -6.4375 -2.320312 -6.359375 -1.84375 -6.359375 C -1.363281 -6.359375 -0.988281 -6.4375 -0.71875 -6.59375 C -0.445312 -6.757812 -0.3125 -6.984375 -0.3125 -7.265625 C -0.3125 -7.535156 -0.445312 -7.75 -0.71875 -7.90625 C -0.988281 -8.070312 -1.363281 -8.15625 -1.84375 -8.15625 C -2.320312 -8.15625 -2.695312 -8.070312 -2.96875 -7.90625 C -3.25 -7.75 -3.390625 -7.535156 -3.390625 -7.265625 Z M -3.828125 -7.265625 C -3.828125 -7.773438 -3.644531 -8.179688 -3.28125 -8.484375 C -2.925781 -8.785156 -2.445312 -8.9375 -1.84375 -8.9375 C -1.226562 -8.9375 -0.742188 -8.785156 -0.390625 -8.484375 C -0.0351562 -8.179688 0.140625 -7.773438 0.140625 -7.265625 C 0.140625 -6.742188 -0.0351562 -6.332031 -0.390625 -6.03125 C -0.742188 -5.726562 -1.226562 -5.578125 -1.84375 -5.578125 C -2.445312 -5.578125 -2.925781 -5.726562 -3.28125 -6.03125 C -3.644531 -6.332031 -3.828125 -6.742188 -3.828125 -7.265625 Z M -7.40625 -6.65625 L -7.40625 -7.390625 L 0.140625 -2.84375 L 0.140625 -2.09375 Z M -7.40625 -2.234375 C -7.40625 -2.742188 -7.226562 -3.148438 -6.875 -3.453125 C -6.519531 -3.765625 -6.039062 -3.921875 -5.4375 -3.921875 C -4.820312 -3.921875 -4.335938 -3.765625 -3.984375 -3.453125 C -3.628906 -3.148438 -3.453125 -2.742188 -3.453125 -2.234375 C -3.453125 -1.710938 -3.628906 -1.300781 -3.984375 -1 C -4.335938 -0.695312 -4.820312 -0.546875 -5.4375 -0.546875 C -6.039062 -0.546875 -6.519531 -0.695312 -6.875 -1 C -7.226562 -1.300781 -7.40625 -1.710938 -7.40625 -2.234375 Z M -7.40625 -2.234375 "/>
</g>
<g id="glyph-2-0">
<path d="M 3.734375 -2.609375 C 3.554688 -2.410156 3.351562 -2.265625 3.125 -2.171875 C 2.90625 -2.078125 2.65625 -2.03125 2.375 -2.03125 C 1.789062 -2.03125 1.332031 -2.203125 1 -2.546875 C 0.664062 -2.898438 0.5 -3.378906 0.5 -3.984375 C 0.5 -4.566406 0.679688 -5.035156 1.046875 -5.390625 C 1.410156 -5.742188 1.894531 -5.921875 2.5 -5.921875 C 3.15625 -5.921875 3.660156 -5.675781 4.015625 -5.1875 C 4.367188 -4.695312 4.546875 -4 4.546875 -3.09375 C 4.546875 -2.070312 4.332031 -1.28125 3.90625 -0.71875 C 3.488281 -0.164062 2.898438 0.109375 2.140625 0.109375 C 1.941406 0.109375 1.726562 0.0859375 1.5 0.046875 C 1.269531 0.015625 1.039062 -0.0390625 0.8125 -0.125 L 0.8125 -1.09375 L 1.25 -1.09375 C 1.28125 -0.820312 1.378906 -0.613281 1.546875 -0.46875 C 1.710938 -0.332031 1.9375 -0.265625 2.21875 -0.265625 C 2.726562 -0.265625 3.101562 -0.457031 3.34375 -0.84375 C 3.59375 -1.226562 3.722656 -1.816406 3.734375 -2.609375 Z M 2.46875 -5.546875 C 2.101562 -5.546875 1.820312 -5.410156 1.625 -5.140625 C 1.425781 -4.867188 1.328125 -4.484375 1.328125 -3.984375 C 1.328125 -3.472656 1.425781 -3.082031 1.625 -2.8125 C 1.820312 -2.539062 2.101562 -2.40625 2.46875 -2.40625 C 2.832031 -2.40625 3.113281 -2.535156 3.3125 -2.796875 C 3.507812 -3.054688 3.609375 -3.4375 3.609375 -3.9375 C 3.609375 -4.445312 3.507812 -4.84375 3.3125 -5.125 C 3.113281 -5.40625 2.832031 -5.546875 2.46875 -5.546875 Z M 2.46875 -5.546875 "/>
</g>
<g id="glyph-2-1">
<path d="M 2.78125 -1.96875 L 2.78125 -5.0625 L 0.796875 -1.96875 Z M 4.5 0 L 1.859375 0 L 1.859375 -0.40625 L 2.78125 -0.40625 L 2.78125 -1.5625 L 0.25 -1.5625 L 0.25 -1.984375 L 2.796875 -5.921875 L 3.5625 -5.921875 L 3.5625 -1.96875 L 4.671875 -1.96875 L 4.671875 -1.5625 L 3.5625 -1.5625 L 3.5625 -0.40625 L 4.5 -0.40625 Z M 4.5 0 "/>
</g>
<g id="glyph-2-2">
<path d="M 0.75 -0.40625 C 0.75 -0.550781 0.796875 -0.671875 0.890625 -0.765625 C 0.992188 -0.867188 1.117188 -0.921875 1.265625 -0.921875 C 1.410156 -0.921875 1.535156 -0.867188 1.640625 -0.765625 C 1.742188 -0.671875 1.796875 -0.550781 1.796875 -0.40625 C 1.796875 -0.257812 1.742188 -0.132812 1.640625 -0.03125 C 1.535156 0.0625 1.410156 0.109375 1.265625 0.109375 C 1.117188 0.109375 0.992188 0.0625 0.890625 -0.03125 C 0.796875 -0.132812 0.75 -0.257812 0.75 -0.40625 Z M 0.75 -0.40625 "/>
</g>
<g id="glyph-2-3">
<path d="M 4.5 -5.421875 L 2.21875 0 L 1.640625 0 L 3.8125 -5.1875 L 1.125 -5.1875 L 1.125 -4.46875 L 0.671875 -4.46875 L 0.671875 -5.828125 L 4.5 -5.828125 Z M 4.5 -5.421875 "/>
</g>
<g id="glyph-2-4">
<path d="M 0.625 -5.828125 L 2.6875 0.734375 L 2.0625 0.734375 L 0 -5.828125 Z M 0.625 -5.828125 "/>
</g>
<g id="glyph-2-5">
<path d="M 1.796875 -5.5625 C 1.566406 -5.5625 1.382812 -5.453125 1.25 -5.234375 C 1.125 -5.023438 1.0625 -4.722656 1.0625 -4.328125 C 1.0625 -3.953125 1.125 -3.65625 1.25 -3.4375 C 1.382812 -3.21875 1.566406 -3.109375 1.796875 -3.109375 C 2.015625 -3.109375 2.1875 -3.21875 2.3125 -3.4375 C 2.4375 -3.65625 2.5 -3.953125 2.5 -4.328125 C 2.5 -4.710938 2.4375 -5.015625 2.3125 -5.234375 C 2.1875 -5.453125 2.015625 -5.5625 1.796875 -5.5625 Z M 5.8125 -2.703125 C 5.582031 -2.703125 5.398438 -2.59375 5.265625 -2.375 C 5.140625 -2.15625 5.078125 -1.851562 5.078125 -1.46875 C 5.078125 -1.082031 5.140625 -0.78125 5.265625 -0.5625 C 5.398438 -0.351562 5.582031 -0.25 5.8125 -0.25 C 6.03125 -0.25 6.203125 -0.351562 6.328125 -0.5625 C 6.453125 -0.78125 6.515625 -1.082031 6.515625 -1.46875 C 6.515625 -1.851562 6.453125 -2.15625 6.328125 -2.375 C 6.203125 -2.59375 6.03125 -2.703125 5.8125 -2.703125 Z M 5.8125 -3.0625 C 6.21875 -3.0625 6.539062 -2.914062 6.78125 -2.625 C 7.019531 -2.34375 7.140625 -1.957031 7.140625 -1.46875 C 7.140625 -0.976562 7.019531 -0.59375 6.78125 -0.3125 C 6.539062 -0.03125 6.21875 0.109375 5.8125 0.109375 C 5.394531 0.109375 5.0625 -0.03125 4.8125 -0.3125 C 4.570312 -0.59375 4.453125 -0.976562 4.453125 -1.46875 C 4.453125 -1.957031 4.570312 -2.34375 4.8125 -2.625 C 5.0625 -2.914062 5.394531 -3.0625 5.8125 -3.0625 Z M 5.3125 -5.921875 L 5.90625 -5.921875 L 2.265625 0.109375 L 1.671875 0.109375 Z M 1.78125 -5.921875 C 2.1875 -5.921875 2.507812 -5.78125 2.75 -5.5 C 3 -5.21875 3.125 -4.832031 3.125 -4.34375 C 3.125 -3.851562 3.003906 -3.460938 2.765625 -3.171875 C 2.523438 -2.890625 2.195312 -2.75 1.78125 -2.75 C 1.363281 -2.75 1.035156 -2.890625 0.796875 -3.171875 C 0.554688 -3.460938 0.4375 -3.851562 0.4375 -4.34375 C 0.4375 -4.820312 0.554688 -5.203125 0.796875 -5.484375 C 1.046875 -5.773438 1.375 -5.921875 1.78125 -5.921875 Z M 1.78125 -5.921875 "/>
</g>
<g id="glyph-2-6">
<path d="M 2.546875 1.25 C 1.910156 0.957031 1.429688 0.503906 1.109375 -0.109375 C 0.785156 -0.722656 0.625 -1.488281 0.625 -2.40625 C 0.625 -3.332031 0.785156 -4.101562 1.109375 -4.71875 C 1.429688 -5.332031 1.910156 -5.78125 2.546875 -6.0625 L 2.546875 -5.6875 C 2.148438 -5.40625 1.863281 -5.015625 1.6875 -4.515625 C 1.507812 -4.015625 1.421875 -3.3125 1.421875 -2.40625 C 1.421875 -1.5 1.507812 -0.796875 1.6875 -0.296875 C 1.863281 0.203125 2.148438 0.585938 2.546875 0.859375 Z M 2.546875 1.25 "/>
</g>
<g id="glyph-2-7">
<path d="M 1.140625 0 L 1.140625 -0.40625 L 2.140625 -0.40625 L 2.140625 -5.25 L 0.96875 -4.5 L 0.96875 -5 L 2.390625 -5.921875 L 2.9375 -5.921875 L 2.9375 -0.40625 L 3.953125 -0.40625 L 3.953125 0 Z M 1.140625 0 "/>
</g>
<g id="glyph-2-8">
<path d="M 2.53125 -0.265625 C 2.9375 -0.265625 3.238281 -0.484375 3.4375 -0.921875 C 3.632812 -1.359375 3.734375 -2.019531 3.734375 -2.90625 C 3.734375 -3.789062 3.632812 -4.453125 3.4375 -4.890625 C 3.238281 -5.328125 2.9375 -5.546875 2.53125 -5.546875 C 2.132812 -5.546875 1.835938 -5.328125 1.640625 -4.890625 C 1.441406 -4.453125 1.34375 -3.789062 1.34375 -2.90625 C 1.34375 -2.019531 1.441406 -1.359375 1.640625 -0.921875 C 1.835938 -0.484375 2.132812 -0.265625 2.53125 -0.265625 Z M 2.53125 0.109375 C 1.90625 0.109375 1.414062 -0.15625 1.0625 -0.6875 C 0.707031 -1.21875 0.53125 -1.957031 0.53125 -2.90625 C 0.53125 -3.851562 0.707031 -4.59375 1.0625 -5.125 C 1.414062 -5.65625 1.90625 -5.921875 2.53125 -5.921875 C 3.164062 -5.921875 3.660156 -5.65625 4.015625 -5.125 C 4.367188 -4.59375 4.546875 -3.851562 4.546875 -2.90625 C 4.546875 -1.957031 4.367188 -1.21875 4.015625 -0.6875 C 3.660156 -0.15625 3.164062 0.109375 2.53125 0.109375 Z M 2.53125 0.109375 "/>
</g>
<g id="glyph-2-9">
<path d="M 0.78125 -5.578125 C 1.082031 -5.691406 1.367188 -5.773438 1.640625 -5.828125 C 1.921875 -5.890625 2.1875 -5.921875 2.4375 -5.921875 C 3.007812 -5.921875 3.453125 -5.796875 3.765625 -5.546875 C 4.085938 -5.304688 4.25 -4.96875 4.25 -4.53125 C 4.25 -4.175781 4.140625 -3.878906 3.921875 -3.640625 C 3.703125 -3.410156 3.390625 -3.253906 2.984375 -3.171875 C 3.460938 -3.109375 3.832031 -2.9375 4.09375 -2.65625 C 4.351562 -2.375 4.484375 -2.015625 4.484375 -1.578125 C 4.484375 -1.023438 4.300781 -0.601562 3.9375 -0.3125 C 3.570312 -0.03125 3.046875 0.109375 2.359375 0.109375 C 2.054688 0.109375 1.757812 0.078125 1.46875 0.015625 C 1.175781 -0.046875 0.890625 -0.144531 0.609375 -0.28125 L 0.609375 -1.40625 L 1.046875 -1.40625 C 1.066406 -1.03125 1.191406 -0.742188 1.421875 -0.546875 C 1.648438 -0.359375 1.96875 -0.265625 2.375 -0.265625 C 2.769531 -0.265625 3.082031 -0.378906 3.3125 -0.609375 C 3.550781 -0.847656 3.671875 -1.164062 3.671875 -1.5625 C 3.671875 -2.019531 3.550781 -2.363281 3.3125 -2.59375 C 3.070312 -2.832031 2.722656 -2.953125 2.265625 -2.953125 L 1.90625 -2.953125 L 1.90625 -3.359375 L 2.09375 -3.359375 C 2.550781 -3.359375 2.890625 -3.453125 3.109375 -3.640625 C 3.335938 -3.828125 3.453125 -4.109375 3.453125 -4.484375 C 3.453125 -4.828125 3.359375 -5.085938 3.171875 -5.265625 C 2.984375 -5.453125 2.71875 -5.546875 2.375 -5.546875 C 2.019531 -5.546875 1.742188 -5.460938 1.546875 -5.296875 C 1.359375 -5.128906 1.25 -4.878906 1.21875 -4.546875 L 0.78125 -4.546875 Z M 0.78125 -5.578125 "/>
</g>
<g id="glyph-2-10">
<path d="M 2.609375 -0.265625 C 2.972656 -0.265625 3.253906 -0.398438 3.453125 -0.671875 C 3.648438 -0.941406 3.75 -1.332031 3.75 -1.84375 C 3.75 -2.34375 3.648438 -2.726562 3.453125 -3 C 3.253906 -3.269531 2.972656 -3.40625 2.609375 -3.40625 C 2.234375 -3.40625 1.945312 -3.273438 1.75 -3.015625 C 1.5625 -2.753906 1.46875 -2.378906 1.46875 -1.890625 C 1.46875 -1.367188 1.566406 -0.96875 1.765625 -0.6875 C 1.960938 -0.40625 2.242188 -0.265625 2.609375 -0.265625 Z M 1.34375 -3.203125 C 1.519531 -3.398438 1.71875 -3.546875 1.9375 -3.640625 C 2.164062 -3.734375 2.421875 -3.78125 2.703125 -3.78125 C 3.273438 -3.78125 3.726562 -3.601562 4.0625 -3.25 C 4.40625 -2.90625 4.578125 -2.4375 4.578125 -1.84375 C 4.578125 -1.25 4.394531 -0.773438 4.03125 -0.421875 C 3.664062 -0.0664062 3.179688 0.109375 2.578125 0.109375 C 1.921875 0.109375 1.414062 -0.132812 1.0625 -0.625 C 0.707031 -1.113281 0.53125 -1.8125 0.53125 -2.71875 C 0.53125 -3.738281 0.738281 -4.523438 1.15625 -5.078125 C 1.582031 -5.640625 2.175781 -5.921875 2.9375 -5.921875 C 3.132812 -5.921875 3.347656 -5.898438 3.578125 -5.859375 C 3.804688 -5.828125 4.035156 -5.769531 4.265625 -5.6875 L 4.265625 -4.734375 L 3.828125 -4.734375 C 3.796875 -4.992188 3.695312 -5.191406 3.53125 -5.328125 C 3.363281 -5.472656 3.132812 -5.546875 2.84375 -5.546875 C 2.34375 -5.546875 1.96875 -5.351562 1.71875 -4.96875 C 1.476562 -4.582031 1.351562 -3.992188 1.34375 -3.203125 Z M 1.34375 -3.203125 "/>
</g>
<g id="glyph-2-11">
</g>
<g id="glyph-2-12">
<path d="M 4.90625 -4.140625 L 4.90625 -3.734375 L 4.25 -3.734375 L 4.25 -0.40625 L 4.90625 -0.40625 L 4.90625 0 L 2.890625 0 L 2.890625 -0.40625 L 3.53125 -0.40625 L 3.53125 -3.671875 L 1.640625 -3.671875 L 1.640625 -0.40625 L 2.28125 -0.40625 L 2.28125 0 L 0.265625 0 L 0.265625 -0.40625 L 0.921875 -0.40625 L 0.921875 -3.734375 L 0.265625 -3.734375 L 0.265625 -4.140625 Z M 4.90625 -4.140625 "/>
</g>
<g id="glyph-2-13">
<path d="M 3.171875 -1.296875 L 3.171875 -2.171875 L 2.25 -2.171875 C 1.894531 -2.171875 1.628906 -2.09375 1.453125 -1.9375 C 1.285156 -1.789062 1.203125 -1.5625 1.203125 -1.25 C 1.203125 -0.957031 1.289062 -0.722656 1.46875 -0.546875 C 1.644531 -0.378906 1.878906 -0.296875 2.171875 -0.296875 C 2.472656 -0.296875 2.710938 -0.390625 2.890625 -0.578125 C 3.078125 -0.765625 3.171875 -1.003906 3.171875 -1.296875 Z M 3.890625 -2.59375 L 3.890625 -0.40625 L 4.53125 -0.40625 L 4.53125 0 L 3.171875 0 L 3.171875 -0.453125 C 3.015625 -0.253906 2.832031 -0.109375 2.625 -0.015625 C 2.414062 0.0664062 2.175781 0.109375 1.90625 0.109375 C 1.4375 0.109375 1.066406 -0.0078125 0.796875 -0.25 C 0.523438 -0.5 0.390625 -0.832031 0.390625 -1.25 C 0.390625 -1.675781 0.546875 -2.003906 0.859375 -2.234375 C 1.171875 -2.472656 1.609375 -2.59375 2.171875 -2.59375 L 3.171875 -2.59375 L 3.171875 -2.875 C 3.171875 -3.195312 3.078125 -3.441406 2.890625 -3.609375 C 2.703125 -3.785156 2.429688 -3.875 2.078125 -3.875 C 1.796875 -3.875 1.570312 -3.804688 1.40625 -3.671875 C 1.238281 -3.546875 1.132812 -3.351562 1.09375 -3.09375 L 0.71875 -3.09375 L 0.71875 -3.9375 C 0.96875 -4.039062 1.207031 -4.117188 1.4375 -4.171875 C 1.675781 -4.222656 1.90625 -4.25 2.125 -4.25 C 2.707031 -4.25 3.144531 -4.109375 3.4375 -3.828125 C 3.738281 -3.546875 3.890625 -3.132812 3.890625 -2.59375 Z M 3.890625 -2.59375 "/>
</g>
<g id="glyph-2-14">
<path d="M 1.640625 -2.28125 L 1.640625 -1.875 C 1.640625 -1.375 1.734375 -0.988281 1.921875 -0.71875 C 2.109375 -0.457031 2.382812 -0.328125 2.75 -0.328125 C 3.125 -0.328125 3.40625 -0.472656 3.59375 -0.765625 C 3.78125 -1.066406 3.875 -1.503906 3.875 -2.078125 C 3.875 -2.648438 3.78125 -3.082031 3.59375 -3.375 C 3.40625 -3.664062 3.125 -3.8125 2.75 -3.8125 C 2.382812 -3.8125 2.109375 -3.675781 1.921875 -3.40625 C 1.734375 -3.144531 1.640625 -2.769531 1.640625 -2.28125 Z M 0.921875 -3.734375 L 0.234375 -3.734375 L 0.234375 -4.140625 L 1.640625 -4.140625 L 1.640625 -3.5 C 1.773438 -3.757812 1.953125 -3.945312 2.171875 -4.0625 C 2.390625 -4.1875 2.660156 -4.25 2.984375 -4.25 C 3.492188 -4.25 3.90625 -4.046875 4.21875 -3.640625 C 4.539062 -3.242188 4.703125 -2.722656 4.703125 -2.078125 C 4.703125 -1.421875 4.539062 -0.890625 4.21875 -0.484375 C 3.90625 -0.0859375 3.492188 0.109375 2.984375 0.109375 C 2.660156 0.109375 2.390625 0.0507812 2.171875 -0.0625 C 1.953125 -0.1875 1.773438 -0.378906 1.640625 -0.640625 L 1.640625 1.25 L 2.3125 1.25 L 2.3125 1.65625 L 0.234375 1.65625 L 0.234375 1.25 L 0.921875 1.25 Z M 0.921875 -3.734375 "/>
</g>
<g id="glyph-2-15">
<path d="M 0.28125 0 L 0.28125 -0.40625 L 0.9375 -0.40625 L 0.9375 -3.734375 L 0.28125 -3.734375 L 0.28125 -4.140625 L 1.96875 -4.140625 L 3.140625 -1.296875 L 4.296875 -4.140625 L 5.921875 -4.140625 L 5.921875 -3.734375 L 5.28125 -3.734375 L 5.28125 -0.40625 L 5.921875 -0.40625 L 5.921875 0 L 3.90625 0 L 3.90625 -0.40625 L 4.5625 -0.40625 L 4.5625 -3.625 L 3.25 -0.421875 L 2.71875 -0.421875 L 1.421875 -3.625 L 1.421875 -0.40625 L 2.0625 -0.40625 L 2.0625 0 Z M 0.28125 0 "/>
</g>
<g id="glyph-2-16">
<path d="M 0.5625 1.25 L 0.5625 0.859375 C 0.96875 0.585938 1.253906 0.203125 1.421875 -0.296875 C 1.597656 -0.796875 1.6875 -1.5 1.6875 -2.40625 C 1.6875 -3.3125 1.597656 -4.015625 1.421875 -4.515625 C 1.253906 -5.015625 0.96875 -5.40625 0.5625 -5.6875 L 0.5625 -6.0625 C 1.195312 -5.78125 1.675781 -5.332031 2 -4.71875 C 2.320312 -4.101562 2.484375 -3.332031 2.484375 -2.40625 C 2.484375 -1.488281 2.320312 -0.722656 2 -0.109375 C 1.675781 0.503906 1.195312 0.957031 0.5625 1.25 Z M 0.5625 1.25 "/>
</g>
<g id="glyph-2-17">
<path d="M 3.71875 -1.59375 C 3.71875 -2.007812 3.613281 -2.332031 3.40625 -2.5625 C 3.195312 -2.789062 2.90625 -2.90625 2.53125 -2.90625 C 2.164062 -2.90625 1.878906 -2.789062 1.671875 -2.5625 C 1.460938 -2.332031 1.359375 -2.007812 1.359375 -1.59375 C 1.359375 -1.175781 1.460938 -0.847656 1.671875 -0.609375 C 1.878906 -0.378906 2.164062 -0.265625 2.53125 -0.265625 C 2.90625 -0.265625 3.195312 -0.378906 3.40625 -0.609375 C 3.613281 -0.847656 3.71875 -1.175781 3.71875 -1.59375 Z M 3.5625 -4.421875 C 3.5625 -4.773438 3.46875 -5.050781 3.28125 -5.25 C 3.101562 -5.445312 2.851562 -5.546875 2.53125 -5.546875 C 2.21875 -5.546875 1.96875 -5.445312 1.78125 -5.25 C 1.601562 -5.050781 1.515625 -4.773438 1.515625 -4.421875 C 1.515625 -4.066406 1.601562 -3.789062 1.78125 -3.59375 C 1.96875 -3.394531 2.21875 -3.296875 2.53125 -3.296875 C 2.851562 -3.296875 3.101562 -3.394531 3.28125 -3.59375 C 3.46875 -3.789062 3.5625 -4.066406 3.5625 -4.421875 Z M 3.140625 -3.09375 C 3.578125 -3.039062 3.921875 -2.878906 4.171875 -2.609375 C 4.421875 -2.335938 4.546875 -2 4.546875 -1.59375 C 4.546875 -1.039062 4.367188 -0.617188 4.015625 -0.328125 C 3.671875 -0.0351562 3.175781 0.109375 2.53125 0.109375 C 1.894531 0.109375 1.398438 -0.0351562 1.046875 -0.328125 C 0.703125 -0.617188 0.53125 -1.039062 0.53125 -1.59375 C 0.53125 -2 0.65625 -2.335938 0.90625 -2.609375 C 1.15625 -2.878906 1.5 -3.039062 1.9375 -3.09375 C 1.550781 -3.164062 1.25 -3.316406 1.03125 -3.546875 C 0.820312 -3.773438 0.71875 -4.066406 0.71875 -4.421875 C 0.71875 -4.890625 0.878906 -5.253906 1.203125 -5.515625 C 1.523438 -5.785156 1.96875 -5.921875 2.53125 -5.921875 C 3.101562 -5.921875 3.546875 -5.785156 3.859375 -5.515625 C 4.179688 -5.253906 4.34375 -4.890625 4.34375 -4.421875 C 4.34375 -4.066406 4.238281 -3.773438 4.03125 -3.546875 C 3.820312 -3.316406 3.523438 -3.164062 3.140625 -3.09375 Z M 3.140625 -3.09375 "/>
</g>
<g id="glyph-2-18">
<path d="M 4.015625 -5.828125 L 4.015625 -5.1875 L 1.34375 -5.1875 L 1.34375 -3.515625 C 1.476562 -3.609375 1.632812 -3.675781 1.8125 -3.71875 C 2 -3.769531 2.203125 -3.796875 2.421875 -3.796875 C 3.054688 -3.796875 3.554688 -3.617188 3.921875 -3.265625 C 4.285156 -2.921875 4.46875 -2.445312 4.46875 -1.84375 C 4.46875 -1.226562 4.28125 -0.75 3.90625 -0.40625 C 3.539062 -0.0625 3.023438 0.109375 2.359375 0.109375 C 2.097656 0.109375 1.828125 0.078125 1.546875 0.015625 C 1.265625 -0.046875 0.972656 -0.144531 0.671875 -0.28125 L 0.671875 -1.40625 L 1.125 -1.40625 C 1.144531 -1.039062 1.257812 -0.757812 1.46875 -0.5625 C 1.6875 -0.363281 1.984375 -0.265625 2.359375 -0.265625 C 2.773438 -0.265625 3.09375 -0.398438 3.3125 -0.671875 C 3.53125 -0.941406 3.640625 -1.332031 3.640625 -1.84375 C 3.640625 -2.34375 3.53125 -2.726562 3.3125 -3 C 3.09375 -3.269531 2.773438 -3.40625 2.359375 -3.40625 C 2.128906 -3.40625 1.925781 -3.363281 1.75 -3.28125 C 1.570312 -3.195312 1.410156 -3.066406 1.265625 -2.890625 L 0.9375 -2.890625 L 0.9375 -5.828125 Z M 4.015625 -5.828125 "/>
</g>
<g id="glyph-3-0">
<path d="M 3.609375 -0.65625 L 4.875 -0.65625 L 4.875 0 L 0.515625 0 L 0.515625 -0.65625 L 1.546875 -0.65625 L 1.546875 -7.359375 L 0.515625 -7.359375 L 0.515625 -8 L 7.4375 -8 L 7.4375 -6.125 L 6.703125 -6.125 L 6.703125 -7.265625 L 3.609375 -7.265625 Z M 3.609375 -0.65625 "/>
</g>
<g id="glyph-3-1">
<path d="M 1.046875 0.15625 C 0.816406 0.15625 0.539062 0.101562 0.21875 0 L 0.1875 -0.671875 C 0.457031 -0.554688 0.707031 -0.5 0.9375 -0.5 C 1.15625 -0.5 1.320312 -0.566406 1.4375 -0.703125 C 1.695312 -1.003906 1.863281 -1.347656 1.9375 -1.734375 C 2.019531 -2.128906 2.078125 -2.472656 2.109375 -2.765625 C 2.140625 -3.066406 2.15625 -3.519531 2.15625 -4.125 L 2.15625 -5.046875 L 1.34375 -5.046875 L 1.34375 -5.703125 L 7.375 -5.703125 L 7.375 -5.046875 L 6.5625 -5.046875 L 6.5625 -0.65625 L 7.375 -0.65625 L 7.375 0 L 3.84375 0 L 3.84375 -0.65625 L 4.65625 -0.65625 L 4.65625 -5.046875 L 2.84375 -5.046875 L 2.84375 -4.125 C 2.84375 -3.15625 2.773438 -2.328125 2.640625 -1.640625 C 2.390625 -0.441406 1.859375 0.15625 1.046875 0.15625 Z M 1.046875 0.15625 "/>
</g>
<g id="glyph-3-2">
<path d="M 3.703125 1.28125 C 3.535156 1.707031 3.328125 2.003906 3.078125 2.171875 C 2.835938 2.347656 2.515625 2.4375 2.109375 2.4375 C 1.929688 2.4375 1.734375 2.414062 1.515625 2.375 C 1.304688 2.34375 1.070312 2.285156 0.8125 2.203125 L 0.8125 1.015625 L 1.421875 1.03125 C 1.429688 1.300781 1.492188 1.5 1.609375 1.625 C 1.734375 1.757812 1.914062 1.828125 2.15625 1.828125 C 2.382812 1.828125 2.570312 1.765625 2.71875 1.640625 C 2.863281 1.515625 3.007812 1.273438 3.15625 0.921875 L 3.234375 0.71875 L 0.75 -5.046875 L 0.140625 -5.046875 L 0.140625 -5.703125 L 3.421875 -5.703125 L 3.421875 -5.046875 L 2.75 -5.046875 L 4.1875 -1.671875 L 5.546875 -5.046875 L 4.78125 -5.046875 L 4.78125 -5.703125 L 6.921875 -5.703125 L 6.921875 -5.046875 L 6.234375 -5.046875 Z M 3.703125 1.28125 "/>
</g>
<g id="glyph-3-3">
<path d="M 0.375 -4.5625 C 0.375 -5.144531 0.507812 -5.691406 0.78125 -6.203125 C 1.144531 -6.898438 1.601562 -7.378906 2.15625 -7.640625 C 2.625 -7.867188 3.429688 -8.023438 4.578125 -8.109375 C 5.128906 -8.148438 5.484375 -8.222656 5.640625 -8.328125 C 5.804688 -8.429688 5.890625 -8.5 5.890625 -8.53125 L 6.59375 -8.53125 C 6.5625 -8.195312 6.320312 -7.8125 5.875 -7.375 C 5.632812 -7.144531 5.257812 -7 4.75 -6.9375 C 3.582031 -6.800781 2.78125 -6.664062 2.34375 -6.53125 C 2.101562 -6.445312 1.8125 -6.207031 1.46875 -5.8125 C 1.289062 -5.613281 1.179688 -5.304688 1.140625 -4.890625 C 1.703125 -5.535156 2.515625 -5.859375 3.578125 -5.859375 C 4.648438 -5.859375 5.46875 -5.59375 6.03125 -5.0625 C 6.601562 -4.53125 6.890625 -3.796875 6.890625 -2.859375 C 6.890625 -1.921875 6.601562 -1.179688 6.03125 -0.640625 C 5.457031 -0.109375 4.664062 0.15625 3.65625 0.15625 C 2.65625 0.15625 1.882812 -0.0976562 1.34375 -0.609375 C 0.800781 -1.117188 0.503906 -1.867188 0.453125 -2.859375 L 0.390625 -3.796875 C 0.378906 -4.109375 0.375 -4.363281 0.375 -4.5625 Z M 2.8125 -4.734375 C 2.644531 -4.390625 2.5625 -3.757812 2.5625 -2.84375 C 2.5625 -1.9375 2.644531 -1.3125 2.8125 -0.96875 C 2.976562 -0.625 3.265625 -0.453125 3.671875 -0.453125 C 4.066406 -0.453125 4.34375 -0.625 4.5 -0.96875 C 4.664062 -1.3125 4.75 -1.9375 4.75 -2.84375 C 4.75 -3.757812 4.671875 -4.390625 4.515625 -4.734375 C 4.359375 -5.078125 4.078125 -5.25 3.671875 -5.25 C 3.265625 -5.25 2.976562 -5.078125 2.8125 -4.734375 Z M 2.8125 -4.734375 "/>
</g>
<g id="glyph-3-4">
<path d="M 0.375 0 L 0.375 -0.65625 L 1.1875 -0.65625 L 1.1875 -5.046875 L 0.375 -5.046875 L 0.375 -5.703125 L 3.78125 -5.703125 L 3.78125 -5.046875 L 3.078125 -5.046875 L 3.078125 -2.46875 L 5.0625 -4.421875 L 5.0625 -5.046875 L 4.359375 -5.046875 L 4.359375 -5.703125 L 7.78125 -5.703125 L 7.78125 -5.046875 L 6.96875 -5.046875 L 6.96875 -0.65625 L 7.78125 -0.65625 L 7.78125 0 L 4.359375 0 L 4.359375 -0.65625 L 5.0625 -0.65625 L 5.0625 -3.203125 L 3.078125 -1.25 L 3.078125 -0.65625 L 3.78125 -0.65625 L 3.78125 0 Z M 0.375 0 "/>
</g>
<g id="glyph-3-5">
<path d="M 0.375 0 L 0.375 -0.65625 L 1.1875 -0.65625 L 1.1875 -5.046875 L 0.375 -5.046875 L 0.375 -5.703125 L 3.78125 -5.703125 L 3.78125 -5.046875 L 3.078125 -5.046875 L 3.078125 -3.34375 L 4.953125 -3.34375 L 4.953125 -5.046875 L 4.25 -5.046875 L 4.25 -5.703125 L 7.671875 -5.703125 L 7.671875 -5.046875 L 6.859375 -5.046875 L 6.859375 -0.65625 L 7.671875 -0.65625 L 7.671875 0 L 4.25 0 L 4.25 -0.65625 L 4.953125 -0.65625 L 4.953125 -2.6875 L 3.078125 -2.6875 L 3.078125 -0.65625 L 3.78125 -0.65625 L 3.78125 0 Z M 0.375 0 "/>
</g>
<g id="glyph-3-6">
<path d="M 6.046875 -3.5 L 6.046875 -0.65625 L 6.859375 -0.65625 L 6.859375 0 L 4.15625 0 L 4.15625 -0.71875 C 3.90625 -0.425781 3.625 -0.207031 3.3125 -0.0625 C 3.007812 0.0820312 2.660156 0.15625 2.265625 0.15625 C 1.679688 0.15625 1.234375 0 0.921875 -0.3125 C 0.609375 -0.625 0.453125 -1.070312 0.453125 -1.65625 C 0.453125 -2.300781 0.675781 -2.78125 1.125 -3.09375 C 1.570312 -3.414062 2.25 -3.578125 3.15625 -3.578125 L 4.15625 -3.578125 L 4.15625 -3.90625 C 4.15625 -4.375 4.046875 -4.71875 3.828125 -4.9375 C 3.609375 -5.15625 3.269531 -5.265625 2.8125 -5.265625 C 2.425781 -5.265625 2.128906 -5.1875 1.921875 -5.03125 C 1.722656 -4.875 1.582031 -4.617188 1.5 -4.265625 L 0.890625 -4.265625 L 0.890625 -5.5 C 1.234375 -5.613281 1.585938 -5.703125 1.953125 -5.765625 C 2.316406 -5.828125 2.695312 -5.859375 3.09375 -5.859375 C 4.113281 -5.859375 4.859375 -5.664062 5.328125 -5.28125 C 5.804688 -4.90625 6.046875 -4.3125 6.046875 -3.5 Z M 4.15625 -1.796875 L 4.15625 -2.9375 L 3.4375 -2.9375 C 3.082031 -2.9375 2.8125 -2.835938 2.625 -2.640625 C 2.4375 -2.453125 2.34375 -2.175781 2.34375 -1.8125 C 2.34375 -1.445312 2.410156 -1.175781 2.546875 -1 C 2.679688 -0.820312 2.890625 -0.734375 3.171875 -0.734375 C 3.460938 -0.734375 3.695312 -0.828125 3.875 -1.015625 C 4.0625 -1.210938 4.15625 -1.472656 4.15625 -1.796875 Z M 4.15625 -1.796875 "/>
</g>
<g id="glyph-3-7">
</g>
<g id="glyph-3-8">
<path d="M 0.375 0 L 0.375 -0.65625 L 1.1875 -0.65625 L 1.1875 -5.046875 L 0.375 -5.046875 L 0.375 -5.703125 L 7.671875 -5.703125 L 7.671875 -5.046875 L 6.859375 -5.046875 L 6.859375 -0.65625 L 7.671875 -0.65625 L 7.671875 0 L 4.25 0 L 4.25 -0.65625 L 4.953125 -0.65625 L 4.953125 -5.046875 L 3.078125 -5.046875 L 3.078125 -0.65625 L 3.78125 -0.65625 L 3.78125 0 Z M 0.375 0 "/>
</g>
<g id="glyph-3-9">
<path d="M 2.96875 -3.125 L 2.96875 -2.5625 C 2.96875 -1.90625 3.050781 -1.425781 3.21875 -1.125 C 3.382812 -0.832031 3.660156 -0.6875 4.046875 -0.6875 C 4.429688 -0.6875 4.703125 -0.84375 4.859375 -1.15625 C 5.023438 -1.46875 5.109375 -2.035156 5.109375 -2.859375 C 5.109375 -3.671875 5.023438 -4.234375 4.859375 -4.546875 C 4.703125 -4.859375 4.429688 -5.015625 4.046875 -5.015625 C 3.660156 -5.015625 3.382812 -4.863281 3.21875 -4.5625 C 3.050781 -4.269531 2.96875 -3.789062 2.96875 -3.125 Z M 1.0625 -5.046875 L 0.25 -5.046875 L 0.25 -5.703125 L 2.96875 -5.703125 L 2.96875 -4.984375 C 3.125 -5.273438 3.335938 -5.492188 3.609375 -5.640625 C 3.878906 -5.785156 4.21875 -5.859375 4.625 -5.859375 C 5.4375 -5.859375 6.070312 -5.585938 6.53125 -5.046875 C 7 -4.515625 7.234375 -3.785156 7.234375 -2.859375 C 7.234375 -1.921875 7 -1.179688 6.53125 -0.640625 C 6.070312 -0.109375 5.4375 0.15625 4.625 0.15625 C 4.21875 0.15625 3.878906 0.0820312 3.609375 -0.0625 C 3.335938 -0.207031 3.125 -0.425781 2.96875 -0.71875 L 2.96875 1.640625 L 3.84375 1.640625 L 3.84375 2.28125 L 0.25 2.28125 L 0.25 1.640625 L 1.0625 1.640625 Z M 1.0625 -5.046875 "/>
</g>
<g id="glyph-3-10">
<path d="M 3.671875 -0.453125 C 4.066406 -0.453125 4.34375 -0.625 4.5 -0.96875 C 4.664062 -1.3125 4.75 -1.941406 4.75 -2.859375 C 4.75 -3.765625 4.671875 -4.390625 4.515625 -4.734375 C 4.359375 -5.078125 4.078125 -5.25 3.671875 -5.25 C 3.265625 -5.25 2.976562 -5.078125 2.8125 -4.734375 C 2.644531 -4.390625 2.5625 -3.765625 2.5625 -2.859375 C 2.5625 -1.941406 2.644531 -1.3125 2.8125 -0.96875 C 2.976562 -0.625 3.265625 -0.453125 3.671875 -0.453125 Z M 3.671875 0.15625 C 2.660156 0.15625 1.867188 -0.109375 1.296875 -0.640625 C 0.734375 -1.179688 0.453125 -1.921875 0.453125 -2.859375 C 0.453125 -3.796875 0.734375 -4.53125 1.296875 -5.0625 C 1.867188 -5.59375 2.660156 -5.859375 3.671875 -5.859375 C 4.679688 -5.859375 5.46875 -5.59375 6.03125 -5.0625 C 6.601562 -4.53125 6.890625 -3.796875 6.890625 -2.859375 C 6.890625 -1.921875 6.601562 -1.179688 6.03125 -0.640625 C 5.457031 -0.109375 4.671875 0.15625 3.671875 0.15625 Z M 3.671875 0.15625 "/>
</g>
<g id="glyph-3-11">
<path d="M 0.359375 -4.15625 L 0.359375 -5.703125 L 6.296875 -5.703125 L 6.296875 -4.15625 L 5.640625 -4.15625 L 5.640625 -5.046875 L 4.28125 -5.046875 L 4.28125 -0.65625 L 4.96875 -0.65625 L 4.96875 0 L 1.5625 0 L 1.5625 -0.65625 L 2.375 -0.65625 L 2.375 -5.046875 L 1 -5.046875 L 1 -4.15625 Z M 0.359375 -4.15625 "/>
</g>
<g id="glyph-3-12">
<path d="M 3.078125 -0.65625 L 3.5625 -0.65625 C 3.988281 -0.65625 4.375 -0.734375 4.71875 -0.890625 C 5.0625 -1.046875 5.234375 -1.300781 5.234375 -1.65625 C 5.234375 -1.988281 5.078125 -2.238281 4.765625 -2.40625 C 4.453125 -2.582031 4.050781 -2.671875 3.5625 -2.671875 L 3.078125 -2.671875 Z M 3.078125 -3.5 L 3.5 -3.5 C 3.90625 -3.5 4.265625 -3.566406 4.578125 -3.703125 C 4.890625 -3.835938 5.046875 -4.035156 5.046875 -4.296875 C 5.046875 -4.535156 4.894531 -4.71875 4.59375 -4.84375 C 4.289062 -4.976562 3.925781 -5.046875 3.5 -5.046875 L 3.078125 -5.046875 Z M 0.375 0 L 0.375 -0.65625 L 1.1875 -0.65625 L 1.1875 -5.046875 L 0.375 -5.046875 L 0.375 -5.703125 L 4.21875 -5.703125 C 5.914062 -5.703125 6.765625 -5.234375 6.765625 -4.296875 C 6.765625 -3.953125 6.609375 -3.679688 6.296875 -3.484375 C 5.992188 -3.285156 5.578125 -3.160156 5.046875 -3.109375 C 5.703125 -3.054688 6.222656 -2.90625 6.609375 -2.65625 C 6.992188 -2.40625 7.1875 -2.070312 7.1875 -1.65625 C 7.1875 -1.082031 6.914062 -0.660156 6.375 -0.390625 C 5.84375 -0.128906 5.035156 0 3.953125 0 Z M 0.375 0 "/>
</g>
<g id="glyph-3-13">
<path d="M 0.375 0 L 0.375 -0.65625 L 1.1875 -0.65625 L 1.1875 -5.046875 L 0.375 -5.046875 L 0.375 -5.703125 L 3.78125 -5.703125 L 3.78125 -5.046875 L 3.078125 -5.046875 L 3.078125 -0.65625 L 4.953125 -0.65625 L 4.953125 -5.046875 L 4.25 -5.046875 L 4.25 -5.703125 L 7.546875 -5.703125 L 7.546875 -5.046875 L 6.859375 -5.046875 L 6.859375 -0.65625 L 8.71875 -0.65625 L 8.71875 -5.046875 L 8.03125 -5.046875 L 8.03125 -5.703125 L 11.4375 -5.703125 L 11.4375 -5.046875 L 10.625 -5.046875 L 10.625 -0.65625 L 11.4375 -0.65625 L 11.4375 0 Z M 0.375 0 "/>
</g>
<g id="glyph-3-14">
<path d="M 0.453125 0 L 0.453125 -0.65625 L 1.265625 -0.65625 L 1.265625 -5.046875 L 0.453125 -5.046875 L 0.453125 -5.703125 L 3.96875 -5.703125 L 3.96875 -5.046875 L 3.171875 -5.046875 L 3.171875 -3.296875 L 4 -3.296875 C 5.007812 -3.296875 5.765625 -3.160156 6.265625 -2.890625 C 6.765625 -2.628906 7.015625 -2.210938 7.015625 -1.640625 C 7.015625 -1.078125 6.765625 -0.660156 6.265625 -0.390625 C 5.765625 -0.128906 5.007812 0 4 0 Z M 3.171875 -0.65625 L 3.875 -0.65625 C 4.15625 -0.65625 4.421875 -0.738281 4.671875 -0.90625 C 4.929688 -1.070312 5.0625 -1.316406 5.0625 -1.640625 C 5.0625 -1.960938 4.929688 -2.207031 4.671875 -2.375 C 4.421875 -2.550781 4.15625 -2.640625 3.875 -2.640625 L 3.171875 -2.640625 Z M 7.0625 0 L 7.0625 -0.65625 L 7.875 -0.65625 L 7.875 -5.046875 L 7.0625 -5.046875 L 7.0625 -5.703125 L 10.59375 -5.703125 L 10.59375 -5.046875 L 9.78125 -5.046875 L 9.78125 -0.65625 L 10.59375 -0.65625 L 10.59375 0 Z M 7.0625 0 "/>
</g>
<g id="glyph-3-15">
<path d="M 0.375 0 L 0.375 -0.65625 L 1.1875 -0.65625 L 1.1875 -5.046875 L 0.375 -5.046875 L 0.375 -5.703125 L 3.421875 -5.703125 L 4.78125 -2.296875 L 6.140625 -5.703125 L 9.171875 -5.703125 L 9.171875 -5.046875 L 8.359375 -5.046875 L 8.359375 -0.625 L 9.171875 -0.625 L 9.171875 0 L 5.640625 0 L 5.640625 -0.625 L 6.453125 -0.625 L 6.453125 -4.65625 L 4.9375 -0.84375 L 3.40625 -0.84375 L 1.875 -4.65625 L 1.875 -0.65625 L 2.6875 -0.65625 L 2.6875 0 Z M 0.375 0 "/>
</g>
<g id="glyph-3-16">
<path d="M 4.40625 -3.21875 C 4.40625 -3.96875 4.332031 -4.492188 4.1875 -4.796875 C 4.050781 -5.097656 3.816406 -5.25 3.484375 -5.25 C 3.160156 -5.25 2.925781 -5.097656 2.78125 -4.796875 C 2.632812 -4.503906 2.5625 -4.007812 2.5625 -3.3125 L 2.5625 -3.21875 Z M 6.484375 -2.578125 L 2.5625 -2.578125 L 2.5625 -2.53125 C 2.5625 -1.800781 2.671875 -1.269531 2.890625 -0.9375 C 3.117188 -0.613281 3.476562 -0.453125 3.96875 -0.453125 C 4.382812 -0.453125 4.71875 -0.5625 4.96875 -0.78125 C 5.226562 -1 5.390625 -1.316406 5.453125 -1.734375 L 6.34375 -1.734375 C 6.195312 -1.078125 5.894531 -0.597656 5.4375 -0.296875 C 4.976562 0.00390625 4.335938 0.15625 3.515625 0.15625 C 2.523438 0.15625 1.765625 -0.101562 1.234375 -0.625 C 0.710938 -1.144531 0.453125 -1.890625 0.453125 -2.859375 C 0.453125 -3.796875 0.71875 -4.53125 1.25 -5.0625 C 1.789062 -5.59375 2.546875 -5.859375 3.515625 -5.859375 C 4.453125 -5.859375 5.171875 -5.578125 5.671875 -5.015625 C 6.179688 -4.460938 6.453125 -3.648438 6.484375 -2.578125 Z M 6.484375 -2.578125 "/>
</g>
<g id="glyph-3-17">
<path d="M 0.375 1.515625 L 0.375 -0.65625 L 0.734375 -0.65625 C 1.109375 -0.65625 1.375 -0.972656 1.53125 -1.609375 C 1.6875 -2.253906 1.765625 -3.09375 1.765625 -4.125 L 1.765625 -5.046875 L 0.953125 -5.046875 L 0.953125 -5.703125 L 6.875 -5.703125 L 6.875 -5.046875 L 6.0625 -5.046875 L 6.0625 -0.65625 L 6.953125 -0.65625 L 6.953125 1.515625 L 6.3125 1.515625 L 6.21875 0.765625 C 6.164062 0.253906 5.957031 0 5.59375 0 L 1.71875 0 C 1.363281 0 1.15625 0.253906 1.09375 0.765625 L 1.015625 1.515625 Z M 2.03125 -0.71875 C 2.03125 -0.675781 2.09375 -0.65625 2.21875 -0.65625 L 4.15625 -0.65625 L 4.15625 -5.046875 L 2.453125 -5.046875 L 2.453125 -4.125 C 2.453125 -3.113281 2.378906 -2.296875 2.234375 -1.671875 C 2.097656 -1.046875 2.03125 -0.726562 2.03125 -0.71875 Z M 2.03125 -0.71875 "/>
</g>
<g id="glyph-3-18">
<path d="M 0.375 0 L 0.375 -0.65625 L 1.1875 -0.65625 L 1.1875 -5.0625 L 0.375 -5.0625 L 0.375 -5.703125 L 3.78125 -5.703125 L 3.78125 -5.0625 L 3.078125 -5.0625 L 3.078125 -2.984375 L 5.390625 -5.046875 L 4.703125 -5.046875 L 4.703125 -5.703125 L 7.3125 -5.703125 L 7.3125 -5.046875 L 6.25 -5.046875 L 4.78125 -3.734375 L 7.1875 -0.65625 L 7.796875 -0.65625 L 7.796875 0 L 4.53125 0 L 4.53125 -0.65625 L 5.203125 -0.65625 L 3.609375 -2.6875 L 3.078125 -2.203125 L 3.078125 -0.65625 L 3.78125 -0.65625 L 3.78125 0 Z M 0.375 0 "/>
</g>
<g id="glyph-3-19">
<path d="M 0.375 -5.046875 L 0.375 -5.703125 L 3.78125 -5.703125 L 3.78125 -5.046875 L 3.078125 -5.046875 L 3.078125 -3.4375 C 3.078125 -3.1875 3.128906 -3.015625 3.234375 -2.921875 C 3.347656 -2.835938 3.53125 -2.796875 3.78125 -2.796875 L 4.953125 -2.796875 L 4.953125 -5.046875 L 4.25 -5.046875 L 4.25 -5.703125 L 7.671875 -5.703125 L 7.671875 -5.046875 L 6.859375 -5.046875 L 6.859375 -0.65625 L 7.671875 -0.65625 L 7.671875 0 L 4.203125 0 L 4.203125 -0.65625 L 4.953125 -0.65625 L 4.953125 -2.15625 L 3.578125 -2.15625 C 2.867188 -2.15625 2.289062 -2.25 1.84375 -2.4375 C 1.40625 -2.625 1.1875 -2.984375 1.1875 -3.515625 L 1.1875 -5.046875 Z M 0.375 -5.046875 "/>
</g>
<g id="glyph-3-20">
<path d="M 6.1875 -1.78125 C 6.050781 -1.125 5.773438 -0.632812 5.359375 -0.3125 C 4.941406 0 4.367188 0.15625 3.640625 0.15625 C 2.628906 0.15625 1.84375 -0.101562 1.28125 -0.625 C 0.726562 -1.15625 0.453125 -1.898438 0.453125 -2.859375 C 0.453125 -3.796875 0.726562 -4.53125 1.28125 -5.0625 C 1.832031 -5.59375 2.597656 -5.859375 3.578125 -5.859375 C 3.972656 -5.859375 4.367188 -5.816406 4.765625 -5.734375 C 5.171875 -5.660156 5.582031 -5.550781 6 -5.40625 L 6 -3.828125 L 5.40625 -3.828125 C 5.351562 -4.304688 5.210938 -4.660156 4.984375 -4.890625 C 4.753906 -5.128906 4.4375 -5.25 4.03125 -5.25 C 3.5 -5.25 3.117188 -5.066406 2.890625 -4.703125 C 2.671875 -4.347656 2.5625 -3.734375 2.5625 -2.859375 C 2.5625 -1.992188 2.671875 -1.375 2.890625 -1 C 3.109375 -0.632812 3.46875 -0.453125 3.96875 -0.453125 C 4.34375 -0.453125 4.644531 -0.566406 4.875 -0.796875 C 5.113281 -1.023438 5.253906 -1.351562 5.296875 -1.78125 Z M 6.1875 -1.78125 "/>
</g>
</g>
<clipPath id="clip-0">
<path clip-rule="nonzero" d="M 0.0664062 0 L 477.675781 0 L 477.675781 213.320312 L 0.0664062 213.320312 Z M 0.0664062 0 "/>
</clipPath>
<clipPath id="clip-1">
<path clip-rule="nonzero" d="M 61 30 L 123 30 L 123 182.550781 L 61 182.550781 Z M 61 30 "/>
</clipPath>
<clipPath id="clip-2">
<path clip-rule="nonzero" d="M 163 30 L 225 30 L 225 182.550781 L 163 182.550781 Z M 163 30 "/>
</clipPath>
<clipPath id="clip-3">
<path clip-rule="nonzero" d="M 265 30 L 328 30 L 328 182.550781 L 265 182.550781 Z M 265 30 "/>
</clipPath>
<clipPath id="clip-4">
<path clip-rule="nonzero" d="M 368 30 L 430 30 L 430 182.550781 L 368 182.550781 Z M 368 30 "/>
</clipPath>
<clipPath id="clip-5">
<path clip-rule="nonzero" d="M 42.628906 182 L 448.3125 182 L 448.3125 182.550781 L 42.628906 182.550781 Z M 42.628906 182 "/>
</clipPath>
<clipPath id="clip-6">
<path clip-rule="nonzero" d="M 42.628906 150 L 448.3125 150 L 448.3125 151 L 42.628906 151 Z M 42.628906 150 "/>
</clipPath>
<clipPath id="clip-7">
<path clip-rule="nonzero" d="M 42.628906 118 L 448.3125 118 L 448.3125 119 L 42.628906 119 Z M 42.628906 118 "/>
</clipPath>
<clipPath id="clip-8">
<path clip-rule="nonzero" d="M 42.628906 86 L 448.3125 86 L 448.3125 87 L 42.628906 87 Z M 42.628906 86 "/>
</clipPath>
<clipPath id="clip-9">
<path clip-rule="nonzero" d="M 42.628906 53 L 448.3125 53 L 448.3125 55 L 42.628906 55 Z M 42.628906 53 "/>
</clipPath>
<clipPath id="clip-10">
<path clip-rule="nonzero" d="M 42.628906 21 L 448.3125 21 L 448.3125 23 L 42.628906 23 Z M 42.628906 21 "/>
</clipPath>
</defs>
<g clip-path="url(#clip-0)">
<path fill-rule="nonzero" fill="rgb(100%, 100%, 100%)" fill-opacity="1" d="M 0.0664062 213.320312 L 477.675781 213.320312 L 477.675781 0 L 0.0664062 0 Z M 0.0664062 213.320312 "/>
</g>
<path fill-rule="nonzero" fill="rgb(100%, 100%, 100%)" fill-opacity="1" d="M 42.628906 182.550781 L 448.3125 182.550781 L 448.3125 17.398438 L 42.628906 17.398438 Z M 42.628906 182.550781 "/>
<g clip-path="url(#clip-1)">
<path fill-rule="nonzero" fill="rgb(72.155762%, 32.940674%, 31.37207%)" fill-opacity="1" d="M 61.066406 182.550781 L 122.535156 182.550781 L 122.535156 30.761719 L 61.066406 30.761719 Z M 61.066406 182.550781 "/>
</g>
<g clip-path="url(#clip-2)">
<path fill-rule="nonzero" fill="rgb(12.156677%, 30.587769%, 47.450256%)" fill-opacity="1" d="M 163.511719 182.550781 L 224.980469 182.550781 L 224.980469 30.761719 L 163.511719 30.761719 Z M 163.511719 182.550781 "/>
</g>
<g clip-path="url(#clip-3)">
<path fill-rule="nonzero" fill="rgb(12.156677%, 30.587769%, 47.450256%)" fill-opacity="1" d="M 265.960938 182.550781 L 327.425781 182.550781 L 327.425781 30.492188 L 265.960938 30.492188 Z M 265.960938 182.550781 "/>
</g>
<g clip-path="url(#clip-4)">
<path fill-rule="nonzero" fill="rgb(12.156677%, 30.587769%, 47.450256%)" fill-opacity="1" d="M 368.40625 182.550781 L 429.871094 182.550781 L 429.871094 30.226562 L 368.40625 30.226562 Z M 368.40625 182.550781 "/>
</g>
<path fill="none" stroke-width="0.8" stroke-linecap="butt" stroke-linejoin="round" stroke="rgb(26.66626%, 26.66626%, 26.66626%)" stroke-opacity="1" stroke-miterlimit="10" d="M 91.881349 30.819419 L 91.881349 27.317768 " transform="matrix(0.998413, 0, 0, -0.998413, 0.0652506, 213.321289)"/>
<g fill="rgb(26.66626%, 26.66626%, 26.66626%)" fill-opacity="1">
<use xlink:href="#glyph-0-0" x="88.626911" y="197.123287"/>
</g>
<g fill="rgb(26.66626%, 26.66626%, 26.66626%)" fill-opacity="1">
<use xlink:href="#glyph-0-1" x="67.192232" y="208.296152"/>
<use xlink:href="#glyph-0-2" x="72.783345" y="208.296152"/>
<use xlink:href="#glyph-0-3" x="79.023426" y="208.296152"/>
<use xlink:href="#glyph-0-4" x="85.413269" y="208.296152"/>
<use xlink:href="#glyph-0-5" x="88.588222" y="208.296152"/>
<use xlink:href="#glyph-0-1" x="91.763175" y="208.296152"/>
<use xlink:href="#glyph-0-6" x="97.354288" y="208.296152"/>
<use xlink:href="#glyph-0-7" x="103.69421" y="208.296152"/>
<use xlink:href="#glyph-0-8" x="109.704656" y="208.296152"/>
</g>
<path fill="none" stroke-width="0.8" stroke-linecap="butt" stroke-linejoin="round" stroke="rgb(26.66626%, 26.66626%, 26.66626%)" stroke-opacity="1" stroke-miterlimit="10" d="M 194.489504 30.819419 L 194.489504 27.317768 " transform="matrix(0.998413, 0, 0, -0.998413, 0.0652506, 213.321289)"/>
<g fill="rgb(26.66626%, 26.66626%, 26.66626%)" fill-opacity="1">
<use xlink:href="#glyph-0-9" x="191.072653" y="197.123287"/>
</g>
<g fill="rgb(26.66626%, 26.66626%, 26.66626%)" fill-opacity="1">
<use xlink:href="#glyph-0-1" x="163.8737" y="208.371033"/>
<use xlink:href="#glyph-0-2" x="169.464813" y="208.371033"/>
<use xlink:href="#glyph-0-3" x="175.704894" y="208.371033"/>
<use xlink:href="#glyph-0-4" x="182.094737" y="208.371033"/>
<use xlink:href="#glyph-0-5" x="185.26969" y="208.371033"/>
<use xlink:href="#glyph-0-1" x="188.444643" y="208.371033"/>
<use xlink:href="#glyph-0-6" x="194.035756" y="208.371033"/>
<use xlink:href="#glyph-0-7" x="200.375678" y="208.371033"/>
<use xlink:href="#glyph-0-8" x="206.386124" y="208.371033"/>
<use xlink:href="#glyph-0-10" x="213.045539" y="208.371033"/>
<use xlink:href="#glyph-0-11" x="218.956143" y="208.371033"/>
</g>
<path fill="none" stroke-width="0.8" stroke-linecap="butt" stroke-linejoin="round" stroke="rgb(26.66626%, 26.66626%, 26.66626%)" stroke-opacity="1" stroke-miterlimit="10" d="M 297.097659 30.819419 L 297.097659 27.317768 " transform="matrix(0.998413, 0, 0, -0.998413, 0.0652506, 213.321289)"/>
<g fill="rgb(26.66626%, 26.66626%, 26.66626%)" fill-opacity="1">
<use xlink:href="#glyph-0-9" x="293.518396" y="197.123287"/>
</g>
<g fill="rgb(26.66626%, 26.66626%, 26.66626%)" fill-opacity="1">
<use xlink:href="#glyph-0-1" x="266.319443" y="208.371033"/>
<use xlink:href="#glyph-0-2" x="271.910555" y="208.371033"/>
<use xlink:href="#glyph-0-3" x="278.150636" y="208.371033"/>
<use xlink:href="#glyph-0-4" x="284.540479" y="208.371033"/>
<use xlink:href="#glyph-0-5" x="287.715433" y="208.371033"/>
<use xlink:href="#glyph-0-1" x="290.890386" y="208.371033"/>
<use xlink:href="#glyph-0-6" x="296.481498" y="208.371033"/>
<use xlink:href="#glyph-0-7" x="302.821421" y="208.371033"/>
<use xlink:href="#glyph-0-8" x="308.831867" y="208.371033"/>
<use xlink:href="#glyph-0-10" x="315.491281" y="208.371033"/>
<use xlink:href="#glyph-0-11" x="321.401886" y="208.371033"/>
</g>
<path fill="none" stroke-width="0.8" stroke-linecap="butt" stroke-linejoin="round" stroke="rgb(26.66626%, 26.66626%, 26.66626%)" stroke-opacity="1" stroke-miterlimit="10" d="M 399.709727 30.819419 L 399.709727 27.317768 " transform="matrix(0.998413, 0, 0, -0.998413, 0.0652506, 213.321289)"/>
<g fill="rgb(26.66626%, 26.66626%, 26.66626%)" fill-opacity="1">
<use xlink:href="#glyph-0-12" x="395.964139" y="197.123287"/>
</g>
<g fill="rgb(26.66626%, 26.66626%, 26.66626%)" fill-opacity="1">
<use xlink:href="#glyph-0-1" x="368.765185" y="208.371033"/>
<use xlink:href="#glyph-0-2" x="374.356298" y="208.371033"/>
<use xlink:href="#glyph-0-3" x="380.596379" y="208.371033"/>
<use xlink:href="#glyph-0-4" x="386.986222" y="208.371033"/>
<use xlink:href="#glyph-0-5" x="390.161175" y="208.371033"/>
<use xlink:href="#glyph-0-1" x="393.336129" y="208.371033"/>
<use xlink:href="#glyph-0-6" x="398.927241" y="208.371033"/>
<use xlink:href="#glyph-0-7" x="405.267163" y="208.371033"/>
<use xlink:href="#glyph-0-8" x="411.27761" y="208.371033"/>
<use xlink:href="#glyph-0-10" x="417.937024" y="208.371033"/>
<use xlink:href="#glyph-0-11" x="423.847629" y="208.371033"/>
</g>
<g clip-path="url(#clip-5)">
<path fill="none" stroke-width="0.6" stroke-linecap="butt" stroke-linejoin="round" stroke="rgb(74.900818%, 74.900818%, 74.900818%)" stroke-opacity="0.4" stroke-dasharray="0.6 0.99" stroke-miterlimit="10" d="M 42.631313 30.819419 L 448.959763 30.819419 " transform="matrix(0.998413, 0, 0, -0.998413, 0.0652506, 213.321289)"/>
</g>
<path fill="none" stroke-width="0.8" stroke-linecap="butt" stroke-linejoin="round" stroke="rgb(26.66626%, 26.66626%, 26.66626%)" stroke-opacity="1" stroke-miterlimit="10" d="M 42.631313 30.819419 L 39.129662 30.819419 " transform="matrix(0.998413, 0, 0, -0.998413, 0.0652506, 213.321289)"/>
<g fill="rgb(26.66626%, 26.66626%, 26.66626%)" fill-opacity="1">
<use xlink:href="#glyph-0-13" x="29.289422" y="186.343547"/>
</g>
<g clip-path="url(#clip-6)">
<path fill="none" stroke-width="0.6" stroke-linecap="butt" stroke-linejoin="round" stroke="rgb(74.900818%, 74.900818%, 74.900818%)" stroke-opacity="0.4" stroke-dasharray="0.6 0.99" stroke-miterlimit="10" d="M 42.631313 62.936797 L 448.959763 62.936797 " transform="matrix(0.998413, 0, 0, -0.998413, 0.0652506, 213.321289)"/>
</g>
<path fill="none" stroke-width="0.8" stroke-linecap="butt" stroke-linejoin="round" stroke="rgb(26.66626%, 26.66626%, 26.66626%)" stroke-opacity="1" stroke-miterlimit="10" d="M 42.631313 62.936797 L 39.129662 62.936797 " transform="matrix(0.998413, 0, 0, -0.998413, 0.0652506, 213.321289)"/>
<g fill="rgb(26.66626%, 26.66626%, 26.66626%)" fill-opacity="1">
<use xlink:href="#glyph-0-9" x="22.94014" y="154.27491"/>
<use xlink:href="#glyph-0-13" x="29.290046" y="154.27491"/>
</g>
<g clip-path="url(#clip-7)">
<path fill="none" stroke-width="0.6" stroke-linecap="butt" stroke-linejoin="round" stroke="rgb(74.900818%, 74.900818%, 74.900818%)" stroke-opacity="0.4" stroke-dasharray="0.6 0.99" stroke-miterlimit="10" d="M 42.631313 95.058087 L 448.959763 95.058087 " transform="matrix(0.998413, 0, 0, -0.998413, 0.0652506, 213.321289)"/>
</g>
<path fill="none" stroke-width="0.8" stroke-linecap="butt" stroke-linejoin="round" stroke="rgb(26.66626%, 26.66626%, 26.66626%)" stroke-opacity="1" stroke-miterlimit="10" d="M 42.631313 95.058087 L 39.129662 95.058087 " transform="matrix(0.998413, 0, 0, -0.998413, 0.0652506, 213.321289)"/>
<g fill="rgb(26.66626%, 26.66626%, 26.66626%)" fill-opacity="1">
<use xlink:href="#glyph-0-14" x="22.94014" y="122.206273"/>
<use xlink:href="#glyph-0-13" x="29.290046" y="122.206273"/>
</g>
<g clip-path="url(#clip-8)">
<path fill="none" stroke-width="0.6" stroke-linecap="butt" stroke-linejoin="round" stroke="rgb(74.900818%, 74.900818%, 74.900818%)" stroke-opacity="0.4" stroke-dasharray="0.6 0.99" stroke-miterlimit="10" d="M 42.631313 127.175464 L 448.959763 127.175464 " transform="matrix(0.998413, 0, 0, -0.998413, 0.0652506, 213.321289)"/>
</g>
<path fill="none" stroke-width="0.8" stroke-linecap="butt" stroke-linejoin="round" stroke="rgb(26.66626%, 26.66626%, 26.66626%)" stroke-opacity="1" stroke-miterlimit="10" d="M 42.631313 127.175464 L 39.129662 127.175464 " transform="matrix(0.998413, 0, 0, -0.998413, 0.0652506, 213.321289)"/>
<g fill="rgb(26.66626%, 26.66626%, 26.66626%)" fill-opacity="1">
<use xlink:href="#glyph-0-15" x="22.94014" y="90.137636"/>
<use xlink:href="#glyph-0-13" x="29.290046" y="90.137636"/>
</g>
<g clip-path="url(#clip-9)">
<path fill="none" stroke-width="0.6" stroke-linecap="butt" stroke-linejoin="round" stroke="rgb(74.900818%, 74.900818%, 74.900818%)" stroke-opacity="0.4" stroke-dasharray="0.6 0.99" stroke-miterlimit="10" d="M 42.631313 159.296754 L 448.959763 159.296754 " transform="matrix(0.998413, 0, 0, -0.998413, 0.0652506, 213.321289)"/>
</g>
<path fill="none" stroke-width="0.8" stroke-linecap="butt" stroke-linejoin="round" stroke="rgb(26.66626%, 26.66626%, 26.66626%)" stroke-opacity="1" stroke-miterlimit="10" d="M 42.631313 159.296754 L 39.129662 159.296754 " transform="matrix(0.998413, 0, 0, -0.998413, 0.0652506, 213.321289)"/>
<g fill="rgb(26.66626%, 26.66626%, 26.66626%)" fill-opacity="1">
<use xlink:href="#glyph-0-16" x="22.94014" y="58.069"/>
<use xlink:href="#glyph-0-13" x="29.290046" y="58.069"/>
</g>
<g clip-path="url(#clip-10)">
<path fill="none" stroke-width="0.6" stroke-linecap="butt" stroke-linejoin="round" stroke="rgb(74.900818%, 74.900818%, 74.900818%)" stroke-opacity="0.4" stroke-dasharray="0.6 0.99" stroke-miterlimit="10" d="M 42.631313 191.414132 L 448.959763 191.414132 " transform="matrix(0.998413, 0, 0, -0.998413, 0.0652506, 213.321289)"/>
</g>
<path fill="none" stroke-width="0.8" stroke-linecap="butt" stroke-linejoin="round" stroke="rgb(26.66626%, 26.66626%, 26.66626%)" stroke-opacity="1" stroke-miterlimit="10" d="M 42.631313 191.414132 L 39.129662 191.414132 " transform="matrix(0.998413, 0, 0, -0.998413, 0.0652506, 213.321289)"/>
<g fill="rgb(26.66626%, 26.66626%, 26.66626%)" fill-opacity="1">
<use xlink:href="#glyph-0-0" x="16.590857" y="26.000363"/>
<use xlink:href="#glyph-0-13" x="22.940764" y="26.000363"/>
<use xlink:href="#glyph-0-13" x="29.29067" y="26.000363"/>
</g>
<g fill="rgb(13.33313%, 13.33313%, 13.33313%)" fill-opacity="1">
<use xlink:href="#glyph-1-0" x="10.522378" y="152.291237"/>
<use xlink:href="#glyph-1-1" x="10.522378" y="146.770013"/>
<use xlink:href="#glyph-1-2" x="10.522378" y="140.759567"/>
<use xlink:href="#glyph-1-3" x="10.522378" y="134.160058"/>
<use xlink:href="#glyph-1-1" x="10.522378" y="127.500643"/>
<use xlink:href="#glyph-1-4" x="10.522378" y="121.490197"/>
<use xlink:href="#glyph-1-0" x="10.522378" y="115.899084"/>
<use xlink:href="#glyph-1-5" x="10.522378" y="110.377861"/>
<use xlink:href="#glyph-1-6" x="10.522378" y="104.946494"/>
<use xlink:href="#glyph-1-3" x="10.522378" y="101.771541"/>
<use xlink:href="#glyph-1-7" x="10.522378" y="95.112127"/>
<use xlink:href="#glyph-1-6" x="10.522378" y="89.161585"/>
<use xlink:href="#glyph-1-8" x="10.522378" y="85.986632"/>
<use xlink:href="#glyph-1-9" x="10.522378" y="81.973012"/>
<use xlink:href="#glyph-1-10" x="10.522378" y="76.062407"/>
<use xlink:href="#glyph-1-8" x="10.522378" y="70.940549"/>
<use xlink:href="#glyph-1-11" x="10.522378" y="66.926928"/>
<use xlink:href="#glyph-1-6" x="10.522378" y="63.751975"/>
<use xlink:href="#glyph-1-12" x="10.522378" y="60.577022"/>
<use xlink:href="#glyph-1-13" x="10.522378" y="57.21237"/>
</g>
<path fill="none" stroke-width="0.8" stroke-linecap="square" stroke-linejoin="miter" stroke="rgb(26.66626%, 26.66626%, 26.66626%)" stroke-opacity="1" stroke-miterlimit="10" d="M 42.631313 30.819419 L 42.631313 196.234282 " transform="matrix(0.998413, 0, 0, -0.998413, 0.0652506, 213.321289)"/>
<path fill="none" stroke-width="0.8" stroke-linecap="square" stroke-linejoin="miter" stroke="rgb(26.66626%, 26.66626%, 26.66626%)" stroke-opacity="1" stroke-miterlimit="10" d="M 42.631313 30.819419 L 448.959763 30.819419 " transform="matrix(0.998413, 0, 0, -0.998413, 0.0652506, 213.321289)"/>
<g fill="rgb(13.33313%, 13.33313%, 13.33313%)" fill-opacity="1">
<use xlink:href="#glyph-2-0" x="77.753569" y="21.008038"/>
<use xlink:href="#glyph-2-1" x="82.833495" y="21.008038"/>
<use xlink:href="#glyph-2-2" x="87.91342" y="21.008038"/>
<use xlink:href="#glyph-2-3" x="90.453382" y="21.008038"/>
<use xlink:href="#glyph-2-4" x="95.533308" y="21.008038"/>
<use xlink:href="#glyph-2-5" x="98.225029" y="21.008038"/>
</g>
<g fill="rgb(13.33313%, 13.33313%, 13.33313%)" fill-opacity="1">
<use xlink:href="#glyph-2-6" x="60.343743" y="29.959434"/>
<use xlink:href="#glyph-2-7" x="63.458792" y="29.959434"/>
<use xlink:href="#glyph-2-8" x="68.538717" y="29.959434"/>
<use xlink:href="#glyph-2-9" x="73.618642" y="29.959434"/>
<use xlink:href="#glyph-2-10" x="78.698567" y="29.959434"/>
<use xlink:href="#glyph-2-8" x="83.778492" y="29.959434"/>
<use xlink:href="#glyph-2-11" x="88.858418" y="29.959434"/>
<use xlink:href="#glyph-2-12" x="91.39838" y="29.959434"/>
<use xlink:href="#glyph-2-13" x="96.725912" y="29.959434"/>
<use xlink:href="#glyph-2-14" x="101.486345" y="29.959434"/>
<use xlink:href="#glyph-2-13" x="106.598219" y="29.959434"/>
<use xlink:href="#glyph-2-15" x="111.358652" y="29.959434"/>
<use xlink:href="#glyph-2-2" x="117.572775" y="29.959434"/>
<use xlink:href="#glyph-2-16" x="120.112737" y="29.959434"/>
</g>
<g fill="rgb(13.33313%, 13.33313%, 13.33313%)" fill-opacity="1">
<use xlink:href="#glyph-2-0" x="180.199312" y="21.008038"/>
<use xlink:href="#glyph-2-1" x="185.279237" y="21.008038"/>
<use xlink:href="#glyph-2-2" x="190.359162" y="21.008038"/>
<use xlink:href="#glyph-2-3" x="192.899125" y="21.008038"/>
<use xlink:href="#glyph-2-4" x="197.97905" y="21.008038"/>
<use xlink:href="#glyph-2-5" x="200.670772" y="21.008038"/>
</g>
<g fill="rgb(13.33313%, 13.33313%, 13.33313%)" fill-opacity="1">
<use xlink:href="#glyph-2-6" x="165.332319" y="29.959434"/>
<use xlink:href="#glyph-2-17" x="168.447367" y="29.959434"/>
<use xlink:href="#glyph-2-3" x="173.527293" y="29.959434"/>
<use xlink:href="#glyph-2-9" x="178.607218" y="29.959434"/>
<use xlink:href="#glyph-2-8" x="183.687143" y="29.959434"/>
<use xlink:href="#glyph-2-11" x="188.767068" y="29.959434"/>
<use xlink:href="#glyph-2-12" x="191.307031" y="29.959434"/>
<use xlink:href="#glyph-2-13" x="196.634562" y="29.959434"/>
<use xlink:href="#glyph-2-14" x="201.394995" y="29.959434"/>
<use xlink:href="#glyph-2-13" x="206.50687" y="29.959434"/>
<use xlink:href="#glyph-2-15" x="211.267303" y="29.959434"/>
<use xlink:href="#glyph-2-2" x="217.481425" y="29.959434"/>
<use xlink:href="#glyph-2-16" x="220.021388" y="29.959434"/>
</g>
<g fill="rgb(13.33313%, 13.33313%, 13.33313%)" fill-opacity="1">
<use xlink:href="#glyph-2-0" x="282.645055" y="20.740799"/>
<use xlink:href="#glyph-2-1" x="287.72498" y="20.740799"/>
<use xlink:href="#glyph-2-2" x="292.804905" y="20.740799"/>
<use xlink:href="#glyph-2-17" x="295.344868" y="20.740799"/>
<use xlink:href="#glyph-2-4" x="300.424793" y="20.740799"/>
<use xlink:href="#glyph-2-5" x="303.116514" y="20.740799"/>
</g>
<g fill="rgb(13.33313%, 13.33313%, 13.33313%)" fill-opacity="1">
<use xlink:href="#glyph-2-6" x="267.778062" y="29.692195"/>
<use xlink:href="#glyph-2-17" x="270.89311" y="29.692195"/>
<use xlink:href="#glyph-2-0" x="275.973035" y="29.692195"/>
<use xlink:href="#glyph-2-3" x="281.05296" y="29.692195"/>
<use xlink:href="#glyph-2-8" x="286.132886" y="29.692195"/>
<use xlink:href="#glyph-2-11" x="291.212811" y="29.692195"/>
<use xlink:href="#glyph-2-12" x="293.752773" y="29.692195"/>
<use xlink:href="#glyph-2-13" x="299.080305" y="29.692195"/>
<use xlink:href="#glyph-2-14" x="303.840738" y="29.692195"/>
<use xlink:href="#glyph-2-13" x="308.952612" y="29.692195"/>
<use xlink:href="#glyph-2-15" x="313.713045" y="29.692195"/>
<use xlink:href="#glyph-2-2" x="319.927168" y="29.692195"/>
<use xlink:href="#glyph-2-16" x="322.46713" y="29.692195"/>
</g>
<g fill="rgb(13.33313%, 13.33313%, 13.33313%)" fill-opacity="1">
<use xlink:href="#glyph-2-0" x="385.090797" y="20.473561"/>
<use xlink:href="#glyph-2-18" x="390.170723" y="20.473561"/>
<use xlink:href="#glyph-2-2" x="395.250648" y="20.473561"/>
<use xlink:href="#glyph-2-8" x="397.79061" y="20.473561"/>
<use xlink:href="#glyph-2-4" x="402.870536" y="20.473561"/>
<use xlink:href="#glyph-2-5" x="405.562257" y="20.473561"/>
</g>
<g fill="rgb(13.33313%, 13.33313%, 13.33313%)" fill-opacity="1">
<use xlink:href="#glyph-2-6" x="370.223804" y="29.424957"/>
<use xlink:href="#glyph-2-17" x="373.338853" y="29.424957"/>
<use xlink:href="#glyph-2-17" x="378.418778" y="29.424957"/>
<use xlink:href="#glyph-2-10" x="383.498703" y="29.424957"/>
<use xlink:href="#glyph-2-8" x="388.578628" y="29.424957"/>
<use xlink:href="#glyph-2-11" x="393.658554" y="29.424957"/>
<use xlink:href="#glyph-2-12" x="396.198516" y="29.424957"/>
<use xlink:href="#glyph-2-13" x="401.526048" y="29.424957"/>
<use xlink:href="#glyph-2-14" x="406.286481" y="29.424957"/>
<use xlink:href="#glyph-2-13" x="411.398355" y="29.424957"/>
<use xlink:href="#glyph-2-15" x="416.158788" y="29.424957"/>
<use xlink:href="#glyph-2-2" x="422.37291" y="29.424957"/>
<use xlink:href="#glyph-2-16" x="424.912873" y="29.424957"/>
</g>
<g fill="rgb(0%, 0%, 0%)" fill-opacity="1">
<use xlink:href="#glyph-3-0" x="16.139387" y="11.40874"/>
<use xlink:href="#glyph-3-1" x="23.717342" y="11.40874"/>
<use xlink:href="#glyph-3-2" x="31.460034" y="11.40874"/>
<use xlink:href="#glyph-3-3" x="38.488862" y="11.40874"/>
<use xlink:href="#glyph-3-4" x="45.814218" y="11.40874"/>
<use xlink:href="#glyph-3-5" x="53.963264" y="11.40874"/>
<use xlink:href="#glyph-3-6" x="62.002485" y="11.40874"/>
<use xlink:href="#glyph-3-7" x="69.119173" y="11.40874"/>
<use xlink:href="#glyph-3-8" x="72.941098" y="11.40874"/>
<use xlink:href="#glyph-3-9" x="80.980319" y="11.40874"/>
<use xlink:href="#glyph-3-10" x="88.657116" y="11.40874"/>
<use xlink:href="#glyph-3-11" x="95.982472" y="11.40874"/>
<use xlink:href="#glyph-3-4" x="102.791649" y="11.40874"/>
<use xlink:href="#glyph-3-12" x="110.940695" y="11.40874"/>
<use xlink:href="#glyph-3-7" x="118.573563" y="11.40874"/>
<use xlink:href="#glyph-3-13" x="122.395487" y="11.40874"/>
<use xlink:href="#glyph-3-4" x="134.201721" y="11.40874"/>
<use xlink:href="#glyph-3-9" x="142.350767" y="11.40874"/>
<use xlink:href="#glyph-3-4" x="150.027565" y="11.40874"/>
<use xlink:href="#glyph-3-5" x="158.176611" y="11.40874"/>
<use xlink:href="#glyph-3-14" x="166.215833" y="11.40874"/>
<use xlink:href="#glyph-3-7" x="177.22034" y="11.40874"/>
<use xlink:href="#glyph-3-8" x="181.042265" y="11.40874"/>
<use xlink:href="#glyph-3-9" x="189.081486" y="11.40874"/>
<use xlink:href="#glyph-3-4" x="196.758284" y="11.40874"/>
<use xlink:href="#glyph-3-7" x="204.90733" y="11.40874"/>
<use xlink:href="#glyph-3-8" x="208.729255" y="11.40874"/>
<use xlink:href="#glyph-3-9" x="216.768476" y="11.40874"/>
<use xlink:href="#glyph-3-4" x="224.445274" y="11.40874"/>
<use xlink:href="#glyph-3-15" x="232.59432" y="11.40874"/>
<use xlink:href="#glyph-3-16" x="242.13815" y="11.40874"/>
<use xlink:href="#glyph-3-9" x="249.123047" y="11.40874"/>
<use xlink:href="#glyph-3-5" x="256.799844" y="11.40874"/>
<use xlink:href="#glyph-3-10" x="264.839065" y="11.40874"/>
<use xlink:href="#glyph-3-7" x="272.164421" y="11.40874"/>
<use xlink:href="#glyph-3-10" x="275.986346" y="11.40874"/>
<use xlink:href="#glyph-3-17" x="283.311702" y="11.40874"/>
<use xlink:href="#glyph-3-4" x="290.637058" y="11.40874"/>
<use xlink:href="#glyph-3-5" x="298.786105" y="11.40874"/>
<use xlink:href="#glyph-3-6" x="306.825326" y="11.40874"/>
<use xlink:href="#glyph-3-18" x="313.942014" y="11.40874"/>
<use xlink:href="#glyph-3-10" x="321.871409" y="11.40874"/>
<use xlink:href="#glyph-3-12" x="329.196765" y="11.40874"/>
<use xlink:href="#glyph-3-10" x="336.829632" y="11.40874"/>
<use xlink:href="#glyph-3-15" x="344.154988" y="11.40874"/>
<use xlink:href="#glyph-3-7" x="353.698818" y="11.40874"/>
<use xlink:href="#glyph-3-19" x="357.520743" y="11.40874"/>
<use xlink:href="#glyph-3-4" x="365.559964" y="11.40874"/>
<use xlink:href="#glyph-3-20" x="373.709011" y="11.40874"/>
<use xlink:href="#glyph-3-1" x="380.397379" y="11.40874"/>
<use xlink:href="#glyph-3-16" x="388.140072" y="11.40874"/>
<use xlink:href="#glyph-3-7" x="395.124969" y="11.40874"/>
<use xlink:href="#glyph-3-8" x="398.946894" y="11.40874"/>
<use xlink:href="#glyph-3-6" x="406.986115" y="11.40874"/>
<use xlink:href="#glyph-3-9" x="414.102802" y="11.40874"/>
<use xlink:href="#glyph-3-6" x="421.7796" y="11.40874"/>
<use xlink:href="#glyph-3-15" x="428.896287" y="11.40874"/>
<use xlink:href="#glyph-3-16" x="438.440117" y="11.40874"/>
<use xlink:href="#glyph-3-11" x="445.425014" y="11.40874"/>
<use xlink:href="#glyph-3-9" x="452.234191" y="11.40874"/>
<use xlink:href="#glyph-3-10" x="459.910988" y="11.40874"/>
<use xlink:href="#glyph-3-12" x="467.236344" y="11.40874"/>
</g>
</svg>
