<?xml version="1.0" encoding="UTF-8"?>
<svg xmlns="http://www.w3.org/2000/svg" xmlns:xlink="http://www.w3.org/1999/xlink" width="341.72" height="127.66" viewBox="0 0 341.72 127.66">
<defs>
<g>
<g id="glyph-0-0">
<path d="M 4.65625 -3.703125 C 4.65625 -4.234375 4.390625 -4.390625 4.21875 -4.390625 C 3.96875 -4.390625 3.734375 -4.140625 3.734375 -3.921875 C 3.734375 -3.78125 3.78125 -3.734375 3.890625 -3.625 C 4.09375 -3.421875 4.21875 -3.15625 4.21875 -2.796875 C 4.21875 -2.390625 3.625 -0.109375 2.453125 -0.109375 C 1.953125 -0.109375 1.71875 -0.453125 1.71875 -0.96875 C 1.71875 -1.53125 1.984375 -2.25 2.296875 -3.078125 C 2.359375 -3.25 2.421875 -3.390625 2.421875 -3.578125 C 2.421875 -4.03125 2.09375 -4.390625 1.59375 -4.390625 C 0.671875 -4.390625 0.28125 -2.953125 0.28125 -2.859375 C 0.28125 -2.765625 0.390625 -2.765625 0.40625 -2.765625 C 0.5 -2.765625 0.515625 -2.78125 0.5625 -2.9375 C 0.859375 -3.9375 1.28125 -4.171875 1.5625 -4.171875 C 1.65625 -4.171875 1.8125 -4.171875 1.8125 -3.859375 C 1.8125 -3.609375 1.71875 -3.34375 1.65625 -3.15625 C 1.21875 -2 1.078125 -1.546875 1.078125 -1.125 C 1.078125 -0.046875 1.953125 0.109375 2.421875 0.109375 C 4.078125 0.109375 4.65625 -3.1875 4.65625 -3.703125 Z M 4.65625 -3.703125 "/>
</g>
<g id="glyph-0-1">
<path d="M 3.3125 -3 C 3.375 -3.265625 3.609375 -4.171875 4.296875 -4.171875 C 4.359375 -4.171875 4.59375 -4.171875 4.796875 -4.046875 C 4.515625 -4 4.328125 -3.75 4.328125 -3.515625 C 4.328125 -3.34375 4.4375 -3.15625 4.703125 -3.15625 C 4.921875 -3.15625 5.234375 -3.34375 5.234375 -3.734375 C 5.234375 -4.25 4.65625 -4.390625 4.3125 -4.390625 C 3.734375 -4.390625 3.390625 -3.859375 3.265625 -3.640625 C 3.015625 -4.296875 2.484375 -4.390625 2.203125 -4.390625 C 1.15625 -4.390625 0.59375 -3.109375 0.59375 -2.859375 C 0.59375 -2.765625 0.703125 -2.765625 0.71875 -2.765625 C 0.796875 -2.765625 0.828125 -2.78125 0.84375 -2.875 C 1.1875 -3.921875 1.84375 -4.171875 2.171875 -4.171875 C 2.359375 -4.171875 2.71875 -4.078125 2.71875 -3.515625 C 2.71875 -3.203125 2.546875 -2.53125 2.171875 -1.140625 C 2.015625 -0.53125 1.671875 -0.109375 1.234375 -0.109375 C 1.171875 -0.109375 0.9375 -0.109375 0.734375 -0.234375 C 0.984375 -0.28125 1.203125 -0.5 1.203125 -0.78125 C 1.203125 -1.046875 0.984375 -1.125 0.828125 -1.125 C 0.53125 -1.125 0.28125 -0.859375 0.28125 -0.546875 C 0.28125 -0.09375 0.78125 0.109375 1.21875 0.109375 C 1.875 0.109375 2.234375 -0.59375 2.265625 -0.640625 C 2.390625 -0.28125 2.75 0.109375 3.34375 0.109375 C 4.359375 0.109375 4.921875 -1.171875 4.921875 -1.421875 C 4.921875 -1.515625 4.84375 -1.515625 4.8125 -1.515625 C 4.71875 -1.515625 4.703125 -1.484375 4.6875 -1.40625 C 4.359375 -0.34375 3.671875 -0.109375 3.359375 -0.109375 C 2.96875 -0.109375 2.8125 -0.421875 2.8125 -0.765625 C 2.8125 -0.984375 2.875 -1.203125 2.984375 -1.640625 Z M 3.3125 -3 "/>
</g>
<g id="glyph-0-2">
<path d="M 5.140625 -3.703125 C 5.28125 -3.703125 5.640625 -3.703125 5.640625 -4.046875 C 5.640625 -4.28125 5.421875 -4.28125 5.25 -4.28125 L 2.984375 -4.28125 C 1.484375 -4.28125 0.375 -2.640625 0.375 -1.453125 C 0.375 -0.59375 0.96875 0.109375 1.875 0.109375 C 3.046875 0.109375 4.359375 -1.09375 4.359375 -2.625 C 4.359375 -2.796875 4.359375 -3.265625 4.046875 -3.703125 Z M 1.875 -0.109375 C 1.390625 -0.109375 1 -0.46875 1 -1.1875 C 1 -1.484375 1.109375 -2.296875 1.453125 -2.875 C 1.875 -3.5625 2.46875 -3.703125 2.8125 -3.703125 C 3.640625 -3.703125 3.734375 -3.046875 3.734375 -2.75 C 3.734375 -2.28125 3.53125 -1.453125 3.1875 -0.953125 C 2.796875 -0.375 2.265625 -0.109375 1.875 -0.109375 Z M 1.875 -0.109375 "/>
</g>
<g id="glyph-0-3">
<path d="M 3.484375 -0.5625 C 3.59375 -0.15625 3.9375 0.109375 4.359375 0.109375 C 4.703125 0.109375 4.9375 -0.125 5.09375 -0.4375 C 5.265625 -0.796875 5.390625 -1.40625 5.390625 -1.421875 C 5.390625 -1.515625 5.3125 -1.515625 5.28125 -1.515625 C 5.171875 -1.515625 5.171875 -1.484375 5.140625 -1.34375 C 5 -0.78125 4.8125 -0.109375 4.390625 -0.109375 C 4.1875 -0.109375 4.078125 -0.234375 4.078125 -0.5625 C 4.078125 -0.78125 4.203125 -1.25 4.28125 -1.59375 L 4.5625 -2.671875 C 4.59375 -2.828125 4.6875 -3.203125 4.734375 -3.34375 C 4.78125 -3.578125 4.875 -3.953125 4.875 -4.015625 C 4.875 -4.1875 4.734375 -4.28125 4.59375 -4.28125 C 4.546875 -4.28125 4.28125 -4.265625 4.203125 -3.9375 C 4.015625 -3.203125 3.578125 -1.46875 3.453125 -0.9375 C 3.453125 -0.90625 3.046875 -0.109375 2.328125 -0.109375 C 1.8125 -0.109375 1.703125 -0.5625 1.703125 -0.921875 C 1.703125 -1.484375 1.984375 -2.265625 2.25 -2.953125 C 2.359375 -3.25 2.421875 -3.390625 2.421875 -3.578125 C 2.421875 -4.03125 2.09375 -4.390625 1.59375 -4.390625 C 0.65625 -4.390625 0.28125 -2.953125 0.28125 -2.859375 C 0.28125 -2.765625 0.390625 -2.765625 0.40625 -2.765625 C 0.5 -2.765625 0.515625 -2.78125 0.5625 -2.9375 C 0.8125 -3.8125 1.1875 -4.171875 1.5625 -4.171875 C 1.65625 -4.171875 1.8125 -4.15625 1.8125 -3.84375 C 1.8125 -3.609375 1.703125 -3.3125 1.65625 -3.171875 C 1.28125 -2.1875 1.078125 -1.5625 1.078125 -1.078125 C 1.078125 -0.140625 1.765625 0.109375 2.296875 0.109375 C 2.953125 0.109375 3.3125 -0.34375 3.484375 -0.5625 Z M 3.484375 -0.5625 "/>
</g>
<g id="glyph-0-4">
<path d="M 1.78125 -1.140625 C 1.375 -0.484375 1 -0.34375 0.5625 -0.3125 C 0.4375 -0.296875 0.34375 -0.296875 0.34375 -0.109375 C 0.34375 -0.046875 0.390625 0 0.484375 0 C 0.75 0 1.046875 -0.03125 1.328125 -0.03125 C 1.65625 -0.03125 2 0 2.328125 0 C 2.390625 0 2.515625 0 2.515625 -0.1875 C 2.515625 -0.296875 2.421875 -0.3125 2.359375 -0.3125 C 2.125 -0.328125 1.890625 -0.40625 1.890625 -0.65625 C 1.890625 -0.78125 1.953125 -0.890625 2.03125 -1.03125 L 2.78125 -2.296875 L 5.28125 -2.296875 C 5.296875 -2.09375 5.4375 -0.734375 5.4375 -0.640625 C 5.4375 -0.34375 4.921875 -0.3125 4.71875 -0.3125 C 4.578125 -0.3125 4.484375 -0.3125 4.484375 -0.109375 C 4.484375 0 4.59375 0 4.625 0 C 5.03125 0 5.453125 -0.03125 5.859375 -0.03125 C 6.109375 -0.03125 6.734375 0 6.984375 0 C 7.046875 0 7.171875 0 7.171875 -0.203125 C 7.171875 -0.3125 7.0625 -0.3125 6.9375 -0.3125 C 6.3125 -0.3125 6.3125 -0.375 6.296875 -0.671875 L 5.6875 -6.875 C 5.671875 -7.078125 5.671875 -7.109375 5.5 -7.109375 C 5.34375 -7.109375 5.296875 -7.046875 5.234375 -6.953125 Z M 2.96875 -2.609375 L 4.921875 -5.890625 L 5.25 -2.609375 Z M 2.96875 -2.609375 "/>
</g>
<g id="glyph-1-0">
<path d="M 2.328125 -4.421875 C 2.328125 -4.609375 2.3125 -4.609375 2.125 -4.609375 C 1.671875 -4.171875 1.046875 -4.171875 0.765625 -4.171875 L 0.765625 -3.921875 C 0.921875 -3.921875 1.390625 -3.921875 1.765625 -4.109375 L 1.765625 -0.5625 C 1.765625 -0.34375 1.765625 -0.25 1.078125 -0.25 L 0.8125 -0.25 L 0.8125 0 C 0.9375 0 1.78125 -0.03125 2.046875 -0.03125 C 2.265625 -0.03125 3.140625 0 3.28125 0 L 3.28125 -0.25 L 3.03125 -0.25 C 2.328125 -0.25 2.328125 -0.34375 2.328125 -0.5625 Z M 2.328125 -4.421875 "/>
</g>
<g id="glyph-1-1">
<path d="M 3.515625 -1.265625 L 3.28125 -1.265625 C 3.25 -1.109375 3.1875 -0.703125 3.09375 -0.625 C 3.03125 -0.59375 2.5 -0.59375 2.40625 -0.59375 L 1.125 -0.59375 C 1.859375 -1.234375 2.09375 -1.4375 2.515625 -1.765625 C 3.03125 -2.171875 3.515625 -2.59375 3.515625 -3.265625 C 3.515625 -4.109375 2.78125 -4.609375 1.890625 -4.609375 C 1.015625 -4.609375 0.4375 -4.015625 0.4375 -3.375 C 0.4375 -3.015625 0.734375 -2.984375 0.8125 -2.984375 C 0.96875 -2.984375 1.171875 -3.09375 1.171875 -3.34375 C 1.171875 -3.484375 1.125 -3.71875 0.765625 -3.71875 C 0.984375 -4.21875 1.453125 -4.359375 1.78125 -4.359375 C 2.46875 -4.359375 2.84375 -3.828125 2.84375 -3.265625 C 2.84375 -2.65625 2.40625 -2.171875 2.1875 -1.921875 L 0.5 -0.265625 C 0.4375 -0.203125 0.4375 -0.1875 0.4375 0 L 3.296875 0 Z M 3.515625 -1.265625 "/>
</g>
<g id="glyph-2-0">
<path d="M 2.65625 -3.125 L 3.015625 -3.125 L 4.515625 -0.8125 C 4.609375 -0.65625 4.84375 -0.265625 4.953125 -0.125 C 5.03125 0 5.0625 0 5.28125 0 L 6.65625 0 C 6.84375 0 6.984375 0 6.984375 -0.171875 C 6.984375 -0.265625 6.921875 -0.328125 6.84375 -0.34375 C 6.46875 -0.421875 5.984375 -1.078125 5.75 -1.40625 C 5.671875 -1.5 5.171875 -2.15625 4.515625 -3.234375 C 5.390625 -3.390625 6.25 -3.765625 6.25 -4.953125 C 6.25 -6.328125 4.796875 -6.8125 3.625 -6.8125 L 0.5 -6.8125 C 0.3125 -6.8125 0.15625 -6.8125 0.15625 -6.625 C 0.15625 -6.453125 0.34375 -6.453125 0.421875 -6.453125 C 1 -6.453125 1.046875 -6.390625 1.046875 -5.890625 L 1.046875 -0.921875 C 1.046875 -0.421875 1 -0.34375 0.421875 -0.34375 C 0.34375 -0.34375 0.15625 -0.34375 0.15625 -0.171875 C 0.15625 0 0.3125 0 0.5 0 L 3.21875 0 C 3.40625 0 3.546875 0 3.546875 -0.171875 C 3.546875 -0.34375 3.375 -0.34375 3.265625 -0.34375 C 2.703125 -0.34375 2.65625 -0.421875 2.65625 -0.921875 Z M 4.578125 -3.609375 C 4.859375 -3.96875 4.890625 -4.5 4.890625 -4.9375 C 4.890625 -5.421875 4.828125 -5.9375 4.515625 -6.34375 C 4.921875 -6.265625 5.90625 -5.953125 5.90625 -4.953125 C 5.90625 -4.296875 5.609375 -3.796875 4.578125 -3.609375 Z M 2.65625 -5.921875 C 2.65625 -6.125 2.65625 -6.453125 3.28125 -6.453125 C 4.125 -6.453125 4.546875 -6.109375 4.546875 -4.9375 C 4.546875 -3.65625 4.234375 -3.46875 2.65625 -3.46875 Z M 1.3125 -0.34375 C 1.390625 -0.53125 1.390625 -0.8125 1.390625 -0.890625 L 1.390625 -5.90625 C 1.390625 -6.015625 1.390625 -6.28125 1.3125 -6.453125 L 2.4375 -6.453125 C 2.3125 -6.296875 2.3125 -6.109375 2.3125 -5.953125 L 2.3125 -0.890625 C 2.3125 -0.796875 2.3125 -0.53125 2.390625 -0.34375 Z M 3.421875 -3.125 C 3.5 -3.125 3.53125 -3.140625 3.625 -3.140625 C 3.765625 -3.140625 3.984375 -3.15625 4.140625 -3.1875 C 4.28125 -2.9375 5.359375 -1.171875 6.1875 -0.34375 L 5.21875 -0.34375 Z M 3.421875 -3.125 "/>
</g>
<g id="glyph-3-0">
<path d="M 0.84375 -0.4375 C 0.828125 -0.34375 0.78125 -0.171875 0.78125 -0.15625 C 0.78125 0 0.90625 0.0625 1.015625 0.0625 C 1.140625 0.0625 1.25 -0.015625 1.28125 -0.078125 C 1.328125 -0.140625 1.375 -0.375 1.40625 -0.515625 C 1.453125 -0.640625 1.515625 -0.96875 1.5625 -1.140625 C 1.609375 -1.296875 1.640625 -1.453125 1.6875 -1.609375 C 1.765625 -1.890625 1.765625 -1.953125 1.96875 -2.234375 C 2.171875 -2.515625 2.5 -2.875 3.015625 -2.875 C 3.421875 -2.875 3.421875 -2.515625 3.421875 -2.390625 C 3.421875 -1.96875 3.125 -1.203125 3.015625 -0.90625 C 2.9375 -0.703125 2.90625 -0.640625 2.90625 -0.53125 C 2.90625 -0.15625 3.21875 0.0625 3.578125 0.0625 C 4.265625 0.0625 4.578125 -0.890625 4.578125 -1 C 4.578125 -1.078125 4.484375 -1.078125 4.46875 -1.078125 C 4.359375 -1.078125 4.359375 -1.046875 4.328125 -0.96875 C 4.171875 -0.40625 3.875 -0.125 3.59375 -0.125 C 3.453125 -0.125 3.421875 -0.21875 3.421875 -0.375 C 3.421875 -0.53125 3.453125 -0.625 3.578125 -0.9375 C 3.671875 -1.140625 3.953125 -1.890625 3.953125 -2.28125 C 3.953125 -2.953125 3.40625 -3.0625 3.046875 -3.0625 C 2.46875 -3.0625 2.078125 -2.71875 1.875 -2.4375 C 1.828125 -2.90625 1.40625 -3.0625 1.125 -3.0625 C 0.828125 -3.0625 0.671875 -2.84375 0.578125 -2.6875 C 0.421875 -2.4375 0.328125 -2.03125 0.328125 -2 C 0.328125 -1.90625 0.421875 -1.90625 0.4375 -1.90625 C 0.546875 -1.90625 0.546875 -1.9375 0.59375 -2.125 C 0.703125 -2.53125 0.828125 -2.875 1.109375 -2.875 C 1.28125 -2.875 1.328125 -2.71875 1.328125 -2.53125 C 1.328125 -2.40625 1.265625 -2.140625 1.21875 -1.953125 C 1.171875 -1.765625 1.109375 -1.484375 1.078125 -1.328125 Z M 0.84375 -0.4375 "/>
</g>
<g id="glyph-3-1">
<path d="M 3.015625 -0.5625 C 2.984375 -0.421875 2.921875 -0.1875 2.921875 -0.15625 C 2.921875 0 3.046875 0.0625 3.15625 0.0625 C 3.28125 0.0625 3.390625 -0.015625 3.421875 -0.078125 C 3.46875 -0.140625 3.515625 -0.375 3.546875 -0.515625 C 3.59375 -0.640625 3.671875 -0.96875 3.703125 -1.140625 C 3.75 -1.296875 3.796875 -1.453125 3.828125 -1.609375 C 3.90625 -1.90625 3.90625 -1.921875 4.046875 -2.140625 C 4.265625 -2.46875 4.609375 -2.875 5.15625 -2.875 C 5.546875 -2.875 5.5625 -2.546875 5.5625 -2.390625 C 5.5625 -1.96875 5.265625 -1.203125 5.15625 -0.90625 C 5.078125 -0.703125 5.046875 -0.640625 5.046875 -0.53125 C 5.046875 -0.15625 5.359375 0.0625 5.703125 0.0625 C 6.40625 0.0625 6.703125 -0.890625 6.703125 -1 C 6.703125 -1.078125 6.625 -1.078125 6.59375 -1.078125 C 6.5 -1.078125 6.5 -1.046875 6.46875 -0.96875 C 6.3125 -0.40625 6 -0.125 5.734375 -0.125 C 5.578125 -0.125 5.5625 -0.21875 5.5625 -0.375 C 5.5625 -0.53125 5.59375 -0.625 5.71875 -0.9375 C 5.796875 -1.140625 6.078125 -1.890625 6.078125 -2.28125 C 6.078125 -2.390625 6.078125 -2.671875 5.828125 -2.875 C 5.703125 -2.96875 5.5 -3.0625 5.1875 -3.0625 C 4.546875 -3.0625 4.171875 -2.65625 3.953125 -2.359375 C 3.890625 -2.953125 3.40625 -3.0625 3.046875 -3.0625 C 2.46875 -3.0625 2.078125 -2.71875 1.875 -2.4375 C 1.828125 -2.90625 1.40625 -3.0625 1.125 -3.0625 C 0.828125 -3.0625 0.671875 -2.84375 0.578125 -2.6875 C 0.421875 -2.4375 0.328125 -2.03125 0.328125 -2 C 0.328125 -1.90625 0.421875 -1.90625 0.4375 -1.90625 C 0.546875 -1.90625 0.546875 -1.9375 0.59375 -2.125 C 0.703125 -2.53125 0.828125 -2.875 1.109375 -2.875 C 1.28125 -2.875 1.328125 -2.71875 1.328125 -2.53125 C 1.328125 -2.40625 1.265625 -2.140625 1.21875 -1.953125 C 1.171875 -1.765625 1.109375 -1.484375 1.078125 -1.328125 L 0.84375 -0.4375 C 0.828125 -0.34375 0.78125 -0.171875 0.78125 -0.15625 C 0.78125 0 0.90625 0.0625 1.015625 0.0625 C 1.140625 0.0625 1.25 -0.015625 1.28125 -0.078125 C 1.328125 -0.140625 1.375 -0.375 1.40625 -0.515625 C 1.453125 -0.640625 1.515625 -0.96875 1.5625 -1.140625 C 1.609375 -1.296875 1.640625 -1.453125 1.6875 -1.609375 C 1.765625 -1.890625 1.765625 -1.953125 1.96875 -2.234375 C 2.171875 -2.515625 2.5 -2.875 3.015625 -2.875 C 3.421875 -2.875 3.421875 -2.515625 3.421875 -2.390625 C 3.421875 -2.21875 3.40625 -2.125 3.3125 -1.734375 Z M 3.015625 -0.5625 "/>
</g>
<g id="glyph-4-0">
<path d="M 1 -3.390625 C 0.894531 -3.492188 0.84375 -3.617188 0.84375 -3.765625 C 0.84375 -3.910156 0.894531 -4.035156 1 -4.140625 C 1.101562 -4.242188 1.226562 -4.296875 1.375 -4.296875 C 1.519531 -4.296875 1.644531 -4.242188 1.75 -4.140625 C 1.851562 -4.035156 1.90625 -3.910156 1.90625 -3.765625 C 1.90625 -3.617188 1.851562 -3.492188 1.75 -3.390625 C 1.644531 -3.285156 1.519531 -3.234375 1.375 -3.234375 C 1.226562 -3.234375 1.101562 -3.285156 1 -3.390625 Z M 1 -0.15625 C 0.894531 -0.257812 0.84375 -0.382812 0.84375 -0.53125 C 0.84375 -0.675781 0.894531 -0.800781 1 -0.90625 C 1.101562 -1.007812 1.226562 -1.0625 1.375 -1.0625 C 1.519531 -1.0625 1.644531 -1.007812 1.75 -0.90625 C 1.851562 -0.800781 1.90625 -0.675781 1.90625 -0.53125 C 1.90625 -0.382812 1.851562 -0.257812 1.75 -0.15625 C 1.644531 -0.0507812 1.519531 0 1.375 0 C 1.226562 0 1.101562 -0.0507812 1 -0.15625 Z M 1 -0.15625 "/>
</g>
<g id="glyph-5-0">
<path d="M 1.703125 -7.109375 C 1.703125 -7.28125 1.703125 -7.453125 1.515625 -7.453125 C 1.3125 -7.453125 1.3125 -7.234375 1.3125 -7.078125 L 1.3125 2.109375 C 1.3125 2.28125 1.3125 2.484375 1.515625 2.484375 C 1.703125 2.484375 1.703125 2.3125 1.703125 2.140625 Z M 3.640625 -7.078125 C 3.640625 -7.25 3.640625 -7.453125 3.453125 -7.453125 C 3.25 -7.453125 3.25 -7.28125 3.25 -7.109375 L 3.25 2.140625 C 3.25 2.3125 3.25 2.484375 3.453125 2.484375 C 3.640625 2.484375 3.640625 2.265625 3.640625 2.109375 Z M 3.640625 -7.078125 "/>
</g>
<g id="glyph-5-1">
<path d="M 2.8125 -6.125 C 2.8125 -6.53125 3.078125 -7.171875 4.15625 -7.234375 C 4.203125 -7.25 4.25 -7.28125 4.25 -7.34375 C 4.25 -7.453125 4.15625 -7.453125 4.046875 -7.453125 C 3.0625 -7.453125 2.15625 -6.953125 2.140625 -6.21875 L 2.140625 -3.9375 C 2.140625 -3.5625 2.140625 -3.234375 1.75 -2.90625 C 1.40625 -2.625 1.03125 -2.609375 0.8125 -2.59375 C 0.75 -2.578125 0.71875 -2.546875 0.71875 -2.484375 C 0.71875 -2.390625 0.78125 -2.390625 0.875 -2.375 C 1.53125 -2.328125 2 -1.984375 2.109375 -1.484375 C 2.140625 -1.375 2.140625 -1.359375 2.140625 -1 L 2.140625 0.96875 C 2.140625 1.375 2.140625 1.703125 2.625 2.078125 C 3.015625 2.375 3.671875 2.484375 4.046875 2.484375 C 4.15625 2.484375 4.25 2.484375 4.25 2.375 C 4.25 2.28125 4.1875 2.28125 4.078125 2.265625 C 3.453125 2.21875 2.96875 1.90625 2.84375 1.40625 C 2.8125 1.3125 2.8125 1.296875 2.8125 0.9375 L 2.8125 -1.15625 C 2.8125 -1.609375 2.734375 -1.78125 2.421875 -2.09375 C 2.203125 -2.3125 1.921875 -2.40625 1.640625 -2.484375 C 2.453125 -2.71875 2.8125 -3.171875 2.8125 -3.75 Z M 2.8125 -6.125 "/>
</g>
<g id="glyph-5-2">
<path d="M 2.140625 1.15625 C 2.140625 1.5625 1.890625 2.203125 0.8125 2.265625 C 0.75 2.28125 0.71875 2.3125 0.71875 2.375 C 0.71875 2.484375 0.828125 2.484375 0.921875 2.484375 C 1.875 2.484375 2.796875 2 2.8125 1.25 L 2.8125 -1.03125 C 2.8125 -1.40625 2.8125 -1.734375 3.203125 -2.0625 C 3.5625 -2.34375 3.9375 -2.359375 4.15625 -2.375 C 4.203125 -2.390625 4.25 -2.421875 4.25 -2.484375 C 4.25 -2.578125 4.1875 -2.578125 4.078125 -2.59375 C 3.421875 -2.640625 2.953125 -2.984375 2.84375 -3.484375 C 2.8125 -3.59375 2.8125 -3.609375 2.8125 -3.96875 L 2.8125 -5.9375 C 2.8125 -6.34375 2.8125 -6.671875 2.328125 -7.046875 C 1.9375 -7.359375 1.25 -7.453125 0.921875 -7.453125 C 0.828125 -7.453125 0.71875 -7.453125 0.71875 -7.34375 C 0.71875 -7.25 0.78125 -7.25 0.875 -7.234375 C 1.5 -7.1875 1.984375 -6.875 2.109375 -6.375 C 2.140625 -6.28125 2.140625 -6.265625 2.140625 -5.90625 L 2.140625 -3.8125 C 2.140625 -3.359375 2.21875 -3.1875 2.546875 -2.875 C 2.75 -2.65625 3.046875 -2.5625 3.3125 -2.484375 C 2.5 -2.25 2.140625 -1.796875 2.140625 -1.21875 Z M 2.140625 1.15625 "/>
</g>
<g id="glyph-6-0">
<path d="M 6.828125 -3.25 C 6.96875 -3.25 7.171875 -3.25 7.171875 -3.453125 C 7.171875 -3.640625 6.96875 -3.640625 6.84375 -3.640625 L 0.890625 -3.640625 C 0.75 -3.640625 0.5625 -3.640625 0.5625 -3.453125 C 0.5625 -3.25 0.75 -3.25 0.890625 -3.25 Z M 6.84375 -1.328125 C 6.96875 -1.328125 7.171875 -1.328125 7.171875 -1.515625 C 7.171875 -1.71875 6.96875 -1.71875 6.828125 -1.71875 L 0.890625 -1.71875 C 0.75 -1.71875 0.5625 -1.71875 0.5625 -1.515625 C 0.5625 -1.328125 0.75 -1.328125 0.890625 -1.328125 Z M 6.84375 -1.328125 "/>
</g>
<g id="glyph-6-1">
<path d="M 2.921875 -6.359375 C 2.921875 -6.59375 2.921875 -6.625 2.6875 -6.625 C 2.078125 -5.984375 1.203125 -5.984375 0.890625 -5.984375 L 0.890625 -5.671875 C 1.078125 -5.671875 1.671875 -5.671875 2.1875 -5.9375 L 2.1875 -0.78125 C 2.1875 -0.421875 2.15625 -0.3125 1.265625 -0.3125 L 0.9375 -0.3125 L 0.9375 0 C 1.296875 -0.03125 2.15625 -0.03125 2.546875 -0.03125 C 2.953125 -0.03125 3.8125 -0.03125 4.15625 0 L 4.15625 -0.3125 L 3.84375 -0.3125 C 2.953125 -0.3125 2.921875 -0.421875 2.921875 -0.78125 Z M 2.921875 -6.359375 "/>
</g>
<g id="glyph-6-2">
<path d="M 1.90625 -3.75 C 1.90625 -4.046875 1.671875 -4.28125 1.375 -4.28125 C 1.09375 -4.28125 0.859375 -4.046875 0.859375 -3.75 C 0.859375 -3.46875 1.09375 -3.234375 1.375 -3.234375 C 1.671875 -3.234375 1.90625 -3.46875 1.90625 -3.75 Z M 1.90625 -0.53125 C 1.90625 -0.8125 1.671875 -1.046875 1.375 -1.046875 C 1.09375 -1.046875 0.859375 -0.8125 0.859375 -0.53125 C 0.859375 -0.234375 1.09375 0 1.375 0 C 1.671875 0 1.90625 -0.234375 1.90625 -0.53125 Z M 1.90625 -0.53125 "/>
</g>
<g id="glyph-7-0">
<path d="M 2.03125 -1.328125 C 1.609375 -0.625 1.203125 -0.375 0.625 -0.34375 C 0.5 -0.328125 0.40625 -0.328125 0.40625 -0.125 C 0.40625 -0.046875 0.46875 0 0.546875 0 C 0.765625 0 1.296875 -0.03125 1.515625 -0.03125 C 1.859375 -0.03125 2.234375 0 2.578125 0 C 2.640625 0 2.796875 0 2.796875 -0.21875 C 2.796875 -0.328125 2.6875 -0.34375 2.625 -0.34375 C 2.34375 -0.375 2.125 -0.46875 2.125 -0.75 C 2.125 -0.921875 2.1875 -1.046875 2.34375 -1.3125 L 3.25 -2.8125 L 6.296875 -2.8125 C 6.3125 -2.703125 6.3125 -2.609375 6.3125 -2.5 C 6.359375 -2.1875 6.5 -0.953125 6.5 -0.734375 C 6.5 -0.375 5.890625 -0.34375 5.703125 -0.34375 C 5.5625 -0.34375 5.4375 -0.34375 5.4375 -0.125 C 5.4375 0 5.546875 0 5.609375 0 C 5.8125 0 6.0625 -0.03125 6.265625 -0.03125 L 6.9375 -0.03125 C 7.671875 -0.03125 8.1875 0 8.203125 0 C 8.28125 0 8.421875 0 8.421875 -0.21875 C 8.421875 -0.34375 8.3125 -0.34375 8.125 -0.34375 C 7.46875 -0.34375 7.46875 -0.453125 7.421875 -0.8125 L 6.703125 -8.25 C 6.671875 -8.484375 6.625 -8.515625 6.5 -8.515625 C 6.375 -8.515625 6.3125 -8.484375 6.203125 -8.3125 Z M 3.453125 -3.15625 L 5.859375 -7.171875 L 6.265625 -3.15625 Z M 3.453125 -3.15625 "/>
</g>
</g>
</defs>
<path fill="none" stroke-width="0.3985" stroke-linecap="round" stroke-linejoin="miter" stroke="rgb(69.999695%, 69.999695%, 69.999695%)" stroke-opacity="1" stroke-miterlimit="10" d="M -154.775737 -0.000493968 L -59.926137 -0.000493968 " transform="matrix(0.997344, 0, 0, -0.997344, 158.848989, 51.671382)"/>
<path fill="none" stroke-width="0.3985" stroke-linecap="round" stroke-linejoin="round" stroke="rgb(69.999695%, 69.999695%, 69.999695%)" stroke-opacity="1" stroke-miterlimit="10" d="M -2.070527 2.392581 C -1.694528 0.95517 -0.848531 0.277588 0.00138256 -0.000493968 C -0.848531 -0.278576 -1.694528 -0.956157 -2.070527 -2.389653 " transform="matrix(0.997344, 0, 0, -0.997344, 99.279871, 51.671382)"/>
<path fill="none" stroke-width="0.3985" stroke-linecap="round" stroke-linejoin="miter" stroke="rgb(69.999695%, 69.999695%, 69.999695%)" stroke-opacity="1" stroke-miterlimit="10" d="M -107.153146 -47.623085 L -107.153146 47.222599 " transform="matrix(0.997344, 0, 0, -0.997344, 158.848989, 51.671382)"/>
<path fill="none" stroke-width="0.3985" stroke-linecap="round" stroke-linejoin="round" stroke="rgb(69.999695%, 69.999695%, 69.999695%)" stroke-opacity="1" stroke-miterlimit="10" d="M -2.073242 2.390845 C -1.693326 0.957349 -0.851246 0.279768 -0.00133204 0.00168601 C -0.851246 -0.280313 -1.693326 -0.957894 -2.073242 -2.391389 " transform="matrix(0, -0.997344, -0.997344, 0, 51.98215, 4.373671)"/>
<path fill="none" stroke-width="0.79701" stroke-linecap="round" stroke-linejoin="miter" stroke="rgb(12.199402%, 30.599976%, 47.499084%)" stroke-opacity="1" stroke-miterlimit="10" d="M -77.386579 -0.000493968 C -77.386579 16.437701 -90.711034 29.766073 -107.153146 29.766073 C -123.591341 29.766073 -136.915797 16.437701 -136.915797 -0.000493968 C -136.915797 -16.438689 -123.591341 -29.763145 -107.153146 -29.763145 C -90.711034 -29.763145 -77.386579 -16.438689 -77.386579 -0.000493968 Z M -77.386579 -0.000493968 " transform="matrix(0.997344, 0, 0, -0.997344, 158.848989, 51.671382)"/>
<path fill="none" stroke-width="1.19553" stroke-linecap="round" stroke-linejoin="miter" stroke="rgb(72.198486%, 32.899475%, 31.399536%)" stroke-opacity="1" stroke-miterlimit="10" d="M -107.153146 -0.000493968 L -78.581158 -0.000493968 " transform="matrix(0.997344, 0, 0, -0.997344, 158.848989, 51.671382)"/>
<path fill="none" stroke-width="1.19553" stroke-linecap="round" stroke-linejoin="round" stroke="rgb(72.198486%, 32.899475%, 31.399536%)" stroke-opacity="1" stroke-miterlimit="10" d="M -3.02841 3.829993 C -2.476162 1.530918 -1.242416 0.446005 -0.000836571 -0.000493968 C -1.242416 -0.446992 -2.476162 -1.531906 -3.02841 -3.830981 " transform="matrix(0.997344, 0, 0, -0.997344, 81.071147, 51.671382)"/>
<g fill="rgb(72.198486%, 32.899475%, 31.399536%)" fill-opacity="1">
<use xlink:href="#glyph-0-0" x="85.575141" y="59.85758"/>
</g>
<g fill="rgb(72.198486%, 32.899475%, 31.399536%)" fill-opacity="1">
<use xlink:href="#glyph-1-0" x="90.391314" y="61.347611"/>
</g>
<path fill="none" stroke-width="1.19553" stroke-linecap="round" stroke-linejoin="miter" stroke="rgb(72.198486%, 32.899475%, 31.399536%)" stroke-opacity="1" stroke-miterlimit="10" d="M -107.153146 -0.000493968 L -107.153146 28.567577 " transform="matrix(0.997344, 0, 0, -0.997344, 158.848989, 51.671382)"/>
<path fill="none" stroke-width="1.19553" stroke-linecap="round" stroke-linejoin="round" stroke="rgb(72.198486%, 32.899475%, 31.399536%)" stroke-opacity="1" stroke-miterlimit="10" d="M -3.027208 3.832173 C -2.47496 1.533098 -1.241214 0.448185 0.000365474 0.00168601 C -1.241214 -0.448729 -2.47496 -1.533642 -3.027208 -3.832718 " transform="matrix(0, -0.997344, -0.997344, 0, 51.98215, 22.582396)"/>
<g fill="rgb(72.198486%, 32.899475%, 31.399536%)" fill-opacity="1">
<use xlink:href="#glyph-0-0" x="38.800717" y="16.587821"/>
</g>
<g fill="rgb(72.198486%, 32.899475%, 31.399536%)" fill-opacity="1">
<use xlink:href="#glyph-1-1" x="43.61689" y="18.077853"/>
</g>
<g fill="rgb(0%, 0%, 0%)" fill-opacity="1">
<use xlink:href="#glyph-2-0" x="25.743492" y="117.551921"/>
</g>
<g fill="rgb(0%, 0%, 0%)" fill-opacity="1">
<use xlink:href="#glyph-3-0" x="32.919381" y="113.945526"/>
</g>
<g fill="rgb(0%, 0%, 0%)" fill-opacity="1">
<use xlink:href="#glyph-4-0" x="38.327976" y="117.551921"/>
</g>
<g fill="rgb(0%, 0%, 0%)" fill-opacity="1">
<use xlink:href="#glyph-5-0" x="44.388834" y="117.551921"/>
</g>
<g fill="rgb(0%, 0%, 0%)" fill-opacity="1">
<use xlink:href="#glyph-0-1" x="49.3576" y="117.551921"/>
</g>
<g fill="rgb(0%, 0%, 0%)" fill-opacity="1">
<use xlink:href="#glyph-5-0" x="55.035478" y="117.551921"/>
</g>
<g fill="rgb(0%, 0%, 0%)" fill-opacity="1">
<use xlink:href="#glyph-6-0" x="62.763895" y="117.551921"/>
</g>
<g fill="rgb(0%, 0%, 0%)" fill-opacity="1">
<use xlink:href="#glyph-6-1" x="73.236583" y="117.551921"/>
</g>
<path fill="none" stroke-width="1.19553" stroke-linecap="round" stroke-linejoin="miter" stroke="rgb(12.199402%, 30.599976%, 47.499084%)" stroke-opacity="1" stroke-miterlimit="10" d="M -44.647271 -0.000493968 L 43.450019 -0.000493968 " transform="matrix(0.997344, 0, 0, -0.997344, 158.848989, 51.671382)"/>
<path fill="none" stroke-width="1.19553" stroke-linecap="round" stroke-linejoin="round" stroke="rgb(12.199402%, 30.599976%, 47.499084%)" stroke-opacity="1" stroke-miterlimit="10" d="M -3.026877 3.829993 C -2.474628 1.530918 -1.240883 0.446005 0.000696646 -0.000493968 C -1.240883 -0.446992 -2.474628 -1.531906 -3.026877 -3.830981 " transform="matrix(0.997344, 0, 0, -0.997344, 202.780555, 51.671382)"/>
<g fill="rgb(12.199402%, 30.599976%, 47.499084%)" fill-opacity="1">
<use xlink:href="#glyph-7-0" x="154.472645" y="47.76379"/>
</g>
<path fill="none" stroke-width="0.3985" stroke-linecap="round" stroke-linejoin="miter" stroke="rgb(69.999695%, 69.999695%, 69.999695%)" stroke-opacity="1" stroke-miterlimit="10" d="M 35.718544 -0.000493968 L 178.18682 -0.000493968 " transform="matrix(0.997344, 0, 0, -0.997344, 158.848989, 51.671382)"/>
<path fill="none" stroke-width="0.3985" stroke-linecap="round" stroke-linejoin="round" stroke="rgb(69.999695%, 69.999695%, 69.999695%)" stroke-opacity="1" stroke-miterlimit="10" d="M -2.07058 2.389691 C -1.694545 0.956175 -0.848518 0.278597 0.00141887 0.000526071 C -0.848506 -0.277579 -1.694507 -0.95519 -2.070484 -2.392639 " transform="matrix(0.997324, 0.0000199469, 0.0000199469, -0.997324, 336.760304, 51.6724)"/>
<path fill="none" stroke-width="0.3985" stroke-linecap="round" stroke-linejoin="miter" stroke="rgb(69.999695%, 69.999695%, 69.999695%)" stroke-opacity="1" stroke-miterlimit="10" d="M 107.150473 -41.669772 L 107.150473 41.269285 " transform="matrix(0.997344, 0, 0, -0.997344, 158.848989, 51.671382)"/>
<path fill="none" stroke-width="0.3985" stroke-linecap="round" stroke-linejoin="round" stroke="rgb(69.999695%, 69.999695%, 69.999695%)" stroke-opacity="1" stroke-miterlimit="10" d="M -2.072845 2.390742 C -1.692893 0.957226 -0.850782 0.279648 -0.000845582 0.00157704 C -0.850771 -0.280445 -1.692855 -0.958056 -2.072749 -2.391588 " transform="matrix(0.0000199469, -0.997324, -0.997324, -0.0000199469, 265.716417, 10.311657)"/>
<path fill="none" stroke-width="0.79701" stroke-linecap="round" stroke-linejoin="miter" stroke="rgb(12.199402%, 30.599976%, 47.499084%)" stroke-opacity="1" stroke-miterlimit="10" d="M 163.08812 20.358272 C 159.1558 31.172152 130.920644 30.82357 100.02608 19.578857 C 69.131516 8.334145 47.276589 -9.545379 51.212826 -20.359259 C 55.149063 -31.17314 83.384219 -30.824558 114.278783 -19.579845 C 145.173346 -8.335133 167.024357 9.548308 163.08812 20.358272 Z M 163.08812 20.358272 " transform="matrix(0.997344, 0, 0, -0.997344, 158.848989, 51.671382)"/>
<path fill="none" stroke-width="1.19553" stroke-linecap="round" stroke-linejoin="miter" stroke="rgb(72.198486%, 32.899475%, 31.399536%)" stroke-opacity="1" stroke-miterlimit="10" d="M 107.150473 -0.000493968 L 161.967957 19.95094 " transform="matrix(0.997344, 0, 0, -0.997344, 158.848989, 51.671382)"/>
<path fill="none" stroke-width="1.19553" stroke-linecap="round" stroke-linejoin="round" stroke="rgb(72.198486%, 32.899475%, 31.399536%)" stroke-opacity="1" stroke-miterlimit="10" d="M -3.027877 3.8316 C -2.476073 1.534223 -1.241947 0.44733 -0.000274011 -0.000426497 C -1.242875 -0.448467 -2.475623 -1.533642 -3.027754 -3.829361 " transform="matrix(0.937184, -0.341102, -0.341102, -0.937184, 320.945424, 31.569819)"/>
<g fill="rgb(72.198486%, 32.899475%, 31.399536%)" fill-opacity="1">
<use xlink:href="#glyph-0-2" x="311.36479" y="25.967839"/>
</g>
<g fill="rgb(72.198486%, 32.899475%, 31.399536%)" fill-opacity="1">
<use xlink:href="#glyph-1-0" x="317.041671" y="27.457871"/>
</g>
<g fill="rgb(72.198486%, 32.899475%, 31.399536%)" fill-opacity="1">
<use xlink:href="#glyph-0-3" x="321.499797" y="25.967839"/>
</g>
<g fill="rgb(72.198486%, 32.899475%, 31.399536%)" fill-opacity="1">
<use xlink:href="#glyph-1-0" x="327.187649" y="27.457871"/>
</g>
<path fill="none" stroke-width="1.19553" stroke-linecap="round" stroke-linejoin="miter" stroke="rgb(72.198486%, 32.899475%, 31.399536%)" stroke-opacity="1" stroke-miterlimit="10" d="M 107.150473 -0.000493968 L 100.433412 18.454778 " transform="matrix(0.997344, 0, 0, -0.997344, 158.848989, 51.671382)"/>
<path fill="none" stroke-width="1.19553" stroke-linecap="round" stroke-linejoin="round" stroke="rgb(72.198486%, 32.899475%, 31.399536%)" stroke-opacity="1" stroke-miterlimit="10" d="M -3.029156 3.832844 C -2.474981 1.530491 -1.243198 0.448655 -0.00153688 0.00092537 C -1.244112 -0.447129 -2.476823 -1.532307 -3.030247 -3.83168 " transform="matrix(-0.341092, -0.937204, -0.937204, 0.341092, 258.812843, 32.705275)"/>
<g fill="rgb(72.198486%, 32.899475%, 31.399536%)" fill-opacity="1">
<use xlink:href="#glyph-0-2" x="234.41972" y="26.746765"/>
</g>
<g fill="rgb(72.198486%, 32.899475%, 31.399536%)" fill-opacity="1">
<use xlink:href="#glyph-1-1" x="240.0966" y="28.236796"/>
</g>
<g fill="rgb(72.198486%, 32.899475%, 31.399536%)" fill-opacity="1">
<use xlink:href="#glyph-0-3" x="244.554727" y="26.746765"/>
</g>
<g fill="rgb(72.198486%, 32.899475%, 31.399536%)" fill-opacity="1">
<use xlink:href="#glyph-1-1" x="250.242578" y="28.236796"/>
</g>
<g fill="rgb(0%, 0%, 0%)" fill-opacity="1">
<use xlink:href="#glyph-2-0" x="222.733843" y="117.551921"/>
</g>
<g fill="rgb(0%, 0%, 0%)" fill-opacity="1">
<use xlink:href="#glyph-3-1" x="229.909731" y="113.945526"/>
</g>
<g fill="rgb(0%, 0%, 0%)" fill-opacity="1">
<use xlink:href="#glyph-4-0" x="237.457629" y="117.551921"/>
</g>
<g fill="rgb(0%, 0%, 0%)" fill-opacity="1">
<use xlink:href="#glyph-5-1" x="243.518487" y="117.551921"/>
</g>
<g fill="rgb(0%, 0%, 0%)" fill-opacity="1">
<use xlink:href="#glyph-0-4" x="248.486256" y="117.551921"/>
<use xlink:href="#glyph-0-1" x="255.938359" y="117.551921"/>
</g>
<g fill="rgb(0%, 0%, 0%)" fill-opacity="1">
<use xlink:href="#glyph-6-2" x="264.377931" y="117.551921"/>
</g>
<g fill="rgb(0%, 0%, 0%)" fill-opacity="1">
<use xlink:href="#glyph-5-0" x="269.897232" y="117.551921"/>
</g>
<g fill="rgb(0%, 0%, 0%)" fill-opacity="1">
<use xlink:href="#glyph-0-1" x="274.865998" y="117.551921"/>
</g>
<g fill="rgb(0%, 0%, 0%)" fill-opacity="1">
<use xlink:href="#glyph-5-0" x="280.544874" y="117.551921"/>
</g>
<g fill="rgb(0%, 0%, 0%)" fill-opacity="1">
<use xlink:href="#glyph-6-0" x="288.272293" y="117.551921"/>
</g>
<g fill="rgb(0%, 0%, 0%)" fill-opacity="1">
<use xlink:href="#glyph-6-1" x="298.744981" y="117.551921"/>
</g>
<g fill="rgb(0%, 0%, 0%)" fill-opacity="1">
<use xlink:href="#glyph-5-2" x="303.729126" y="117.551921"/>
</g>
</svg>
